<svg version="1.1" id="Layer_1" xmlns="http://www.w3.org/2000/svg" xmlns:xlink="http://www.w3.org/1999/xlink" x="0px" y="0px"
	 width="100%" viewBox="0 0 288 480" enable-background="new 0 0 288 480" xml:space="preserve">
<path fill="#000000" opacity="1.000000" stroke="none" 
	d="
M43.029545,172.036636 
	C40.729263,167.061356 35.982773,165.614105 31.333048,164.486282 
	C28.141087,163.712036 25.505983,165.413925 24.070312,168.516556 
	C23.241655,170.307358 22.485552,172.131714 21.664272,174.015579 
	C27.396296,180.504257 33.352882,186.241989 42.555367,181.924133 
	C51.038307,199.270416 56.709332,218.205551 76.552643,225.692642 
	C83.005745,228.127457 89.598076,230.434784 96.025558,232.922501 
	C104.891182,236.353851 114.141479,236.808243 123.239197,238.454269 
	C128.868668,239.472809 129.449997,239.181213 133.571411,235.749496 
	C135.626511,236.747498 135.796158,238.907364 136.551163,240.692429 
	C139.048859,246.597839 143.167038,247.806778 148.370560,243.966660 
	C150.487762,242.404251 152.215775,243.317413 153.817017,244.489441 
	C157.296021,247.035904 160.243240,244.763718 161.206436,242.378372 
	C162.748260,238.560120 165.757950,237.541916 168.799576,236.691147 
	C174.716461,235.036118 180.609375,233.353592 186.251770,230.928772 
	C189.699249,229.447235 191.934601,230.190521 193.155487,234.006287 
	C192.663712,234.400375 192.151718,235.163116 191.667694,235.145737 
	C184.197922,234.877792 179.114197,241.551346 171.837906,241.906281 
	C170.236343,241.984406 168.563354,242.772995 168.304550,244.861694 
	C168.012939,247.215378 169.731949,247.988968 171.379547,248.860199 
	C175.638855,251.112488 179.958679,253.264313 184.110764,255.700897 
	C187.389755,257.625122 190.623322,259.714935 192.603485,263.345245 
	C196.033981,256.743652 200.228745,251.342682 206.597260,247.962433 
	C207.752838,247.349091 209.180069,246.353271 210.237045,246.596771 
	C216.085220,247.944199 221.948288,248.381653 227.944199,248.555695 
	C230.362976,248.625916 231.956345,248.966309 233.293411,246.771927 
	C234.164322,245.342606 235.274063,244.198792 236.921997,243.488312 
	C238.968018,242.606186 240.877533,241.503937 242.887589,243.413971 
	C244.671783,245.109406 244.982178,247.311859 244.140472,249.391327 
	C242.723343,252.892517 244.136978,255.532516 245.052292,258.925018 
	C246.801193,265.407227 251.786987,272.420135 246.022720,279.476196 
	C251.150391,279.659943 251.150391,279.659943 255.095108,273.245026 
	C259.675201,277.158844 255.790710,280.818848 254.922394,284.366180 
	C253.947357,288.349548 249.762360,289.893219 247.647003,293.507141 
	C243.193817,289.021545 239.937653,290.406158 237.483475,295.592773 
	C236.846680,296.938568 235.538162,297.564117 234.131180,296.813843 
	C232.226196,295.798035 232.982193,294.201996 233.794235,292.960297 
	C236.072464,289.476471 238.447678,286.052887 240.876389,282.671448 
	C244.400177,277.765381 243.814377,275.447571 237.463257,274.245178 
	C228.681641,272.582642 222.944748,266.238403 216.074173,261.637543 
	C214.395447,260.513428 212.740921,258.948090 214.380600,256.223389 
	C215.548416,254.282745 213.478958,252.403702 212.787979,250.729965 
	C212.084915,249.026978 209.319046,250.469955 207.803360,249.644058 
	C206.188538,250.992203 206.965851,252.683289 206.318085,254.092880 
	C208.232513,254.098495 210.570267,253.074921 210.921600,255.997696 
	C204.538223,260.805298 200.910324,267.535065 196.933563,274.023010 
	C193.372437,279.832855 189.701172,285.580231 185.913879,291.245087 
	C181.385468,298.018402 176.832565,304.786011 171.989304,311.333466 
	C169.663712,314.477386 171.075333,316.765472 173.470215,317.922363 
	C182.246017,322.161682 189.471436,328.652435 197.589813,333.817413 
	C203.559479,337.615326 207.791611,335.410095 209.569214,327.863831 
	C210.248993,324.977997 209.218674,320.942261 213.481384,320.240173 
	C218.942856,319.340607 223.529587,321.605988 227.262741,325.529175 
	C228.193832,326.507660 228.667374,328.011719 227.734512,329.214447 
	C226.530579,330.766693 224.985580,329.810059 223.639603,329.251953 
	C221.542969,328.382599 220.529633,325.696655 217.875717,325.686218 
	C217.017761,328.693634 219.232483,331.980530 223.402420,333.869263 
	C225.503052,334.820709 227.613129,335.780975 229.794052,336.513641 
	C230.977219,336.911102 232.116943,337.094940 231.978500,338.659698 
	C231.853760,340.069733 230.726654,340.600952 229.595627,340.887634 
	C225.335968,341.967590 221.345734,341.109589 217.537323,338.609192 
	C213.812668,342.570251 211.106842,346.923920 208.349960,351.230621 
	C203.289062,359.136536 198.826553,359.965302 191.836319,353.655670 
	C186.751846,349.066284 181.218109,345.222809 174.447510,340.733612 
	C174.836151,349.519440 171.858521,356.154633 166.397568,362.129059 
	C169.770721,362.677124 169.124130,365.400604 169.246582,367.761658 
	C170.161850,385.407135 170.278763,403.070892 169.951859,420.726013 
	C169.853439,426.041412 170.631577,430.328857 176.004486,432.405365 
	C180.209473,434.030487 181.604355,438.180023 184.237900,441.185547 
	C186.309341,443.549561 184.256378,447.048553 180.688354,446.824554 
	C174.057266,446.408234 167.464386,447.127228 160.863220,446.945984 
	C155.243469,446.791687 153.774109,445.198059 153.798599,439.672852 
	C153.902084,416.324280 151.918900,393.106262 149.586548,369.906769 
	C149.306061,367.116852 148.616379,364.790894 145.546341,363.686157 
	C144.055878,363.149872 142.850372,361.821716 141.470535,360.819122 
	C138.858505,364.182617 135.212341,364.316345 131.298447,363.775604 
	C125.739159,363.007538 123.941528,364.828339 123.160782,370.283264 
	C120.117119,391.548920 119.289642,413.003876 117.266541,434.350830 
	C116.258560,444.986572 115.602524,446.246613 102.440086,445.262085 
	C99.832016,445.067017 97.287109,444.028076 94.712997,443.378571 
	C92.157265,442.733734 89.107056,442.504974 88.618813,439.204193 
	C88.096031,435.669952 89.766289,432.530304 93.102081,431.702789 
	C99.806236,430.039642 100.876999,425.911163 101.073586,419.638947 
	C101.557640,404.194000 101.602493,388.748138 101.916595,373.304688 
	C101.953850,371.472992 101.797493,369.589142 102.169205,367.821686 
	C103.165794,363.082977 102.998291,359.233917 97.169830,357.809906 
	C94.740097,357.216309 94.211487,355.074982 94.486710,352.593018 
	C95.770874,341.012421 97.007523,329.425293 98.102600,317.825531 
	C98.602684,312.528259 98.682510,307.192627 99.057228,301.881744 
	C99.277275,298.762878 99.171280,295.536163 101.680176,293.024231 
	C102.501747,292.201660 103.126999,290.619080 102.160568,289.840912 
	C97.958717,286.457581 99.104088,281.748657 98.799004,277.421417 
	C98.436119,272.274414 97.453796,271.579071 92.654167,273.990784 
	C80.280724,280.208221 70.559151,289.343414 63.377388,301.171356 
	C61.632507,304.045074 59.565910,306.391418 55.047234,307.126678 
	C56.868126,301.447662 59.364815,296.752991 62.399200,292.673553 
	C70.550148,281.715485 80.486702,272.661743 93.305000,267.296631 
	C95.743103,266.276184 98.338211,265.525513 100.932487,265.012329 
	C103.672432,264.470306 105.356873,265.993103 104.711327,268.687073 
	C103.150963,275.198700 104.978981,281.626892 105.136513,288.047089 
	C105.465378,301.449280 104.707840,314.781799 102.390671,327.831299 
	C101.189911,334.593567 101.048843,341.328247 100.119522,348.035706 
	C99.673416,351.255493 100.475433,353.335663 104.372772,353.849518 
	C111.735313,354.820221 119.226089,355.031525 126.259636,358.212372 
	C128.757751,359.342102 132.126480,358.703308 135.089111,358.606750 
	C138.250946,358.503723 139.709122,356.568085 140.149796,353.487885 
	C141.528397,343.851746 141.050430,334.207184 140.489761,324.557831 
	C140.219315,319.903351 140.142426,315.213867 139.469177,310.614716 
	C139.014206,307.506531 142.092453,306.035889 142.112366,303.170074 
	C140.805878,301.994598 136.797485,301.611084 140.678085,298.621338 
	C142.134048,297.499603 138.199509,297.178528 140.126343,295.293152 
	C142.995377,295.123840 144.340729,296.717773 144.188232,299.723236 
	C143.337662,316.487579 146.977341,333.147278 145.338425,349.932220 
	C145.143677,351.926849 145.422028,353.928833 146.226639,355.813385 
	C147.158234,357.995422 148.517761,358.990356 150.925156,357.764862 
	C152.402588,357.012756 153.974457,356.434174 155.532364,355.854065 
	C167.797318,351.287292 169.812469,347.871338 167.633621,335.165070 
	C167.347260,333.495087 166.836182,331.875366 164.998688,331.228607 
	C162.877075,330.481781 161.362610,328.901733 159.772675,327.448334 
	C153.318039,321.548065 152.559692,320.017090 158.159302,313.420441 
	C161.362885,309.646454 161.502884,303.772888 167.677017,301.462738 
	C162.523788,299.858856 162.899582,296.154877 162.795013,292.599823 
	C162.555084,284.444824 163.152740,276.349854 164.063065,268.102478 
	C170.198837,266.703888 174.928757,269.595123 179.771637,272.083130 
	C181.791016,273.120544 183.650497,274.630096 186.046722,272.335297 
	C189.368729,269.153961 189.502930,267.473297 185.686859,264.941162 
	C180.416092,261.443787 175.088623,258.027405 169.320602,255.360535 
	C165.909088,253.783249 162.862656,253.031342 160.089157,256.726288 
	C157.743958,259.850647 154.782349,259.493927 151.732590,257.363739 
	C149.481262,255.791214 147.835037,253.200485 144.265900,252.821838 
	C143.243256,257.332764 142.988373,261.795135 143.425110,266.319366 
	C143.536148,267.469666 143.886246,268.610596 143.882782,269.755096 
	C143.877197,271.603699 143.831772,273.828094 141.320312,273.834076 
	C138.689056,273.840332 138.919235,271.505219 138.898499,269.726562 
	C138.837036,264.459167 138.876511,259.190643 138.876511,253.871521 
	C134.611816,253.189819 132.183502,255.450775 129.523575,256.975281 
	C122.094879,261.232849 120.695480,261.036285 114.295235,255.000412 
	C112.020851,252.855515 110.371742,250.001236 107.025864,248.518829 
	C104.536942,251.586685 100.922501,252.588837 97.217804,253.669769 
	C79.854095,258.736053 66.470238,269.187500 56.607086,284.262299 
	C54.935440,286.817230 53.352070,289.577484 49.038639,287.003021 
	C50.964832,282.174225 54.112480,278.030579 57.252037,274.078613 
	C67.175346,261.587372 80.001091,253.224655 95.294785,248.661896 
	C96.571297,248.281082 97.895218,248.004852 99.107491,247.474960 
	C101.233902,246.545486 101.690811,244.480103 101.889099,242.493332 
	C102.097824,240.402100 100.033302,240.554184 98.829826,239.832321 
	C94.115021,237.004257 88.537949,236.922806 83.552353,234.928314 
	C70.304497,229.628494 57.137745,224.311783 49.221943,211.244003 
	C46.168991,206.204056 43.967297,200.839615 42.383701,195.215759 
	C41.407307,191.748276 39.791649,190.170059 35.761127,190.076309 
	C25.805975,189.844742 17.455034,180.357117 17.589415,170.426163 
	C17.627300,167.626373 18.177210,165.773865 22.237833,166.583359 
	C18.711611,164.200378 19.829414,162.046387 22.044964,160.824585 
	C25.999199,158.643921 25.470667,156.135147 23.964417,152.630737 
	C18.708361,140.402069 15.672677,127.670952 16.717934,114.237770 
	C17.055676,109.897255 18.573402,106.251213 20.826000,102.175941 
	C25.073418,94.491776 33.017895,89.795479 36.302925,82.260376 
	C39.835960,74.156410 44.887993,67.797363 51.216286,62.299309 
	C69.812721,46.142632 91.314651,37.822495 116.237267,39.196712 
	C120.024979,39.405567 123.876892,38.635265 127.643982,38.959133 
	C129.688431,39.134899 133.526917,37.958633 132.821503,42.760681 
	C132.655579,43.890213 134.695938,44.637672 135.335953,43.269161 
	C137.011856,39.685734 139.693726,40.884537 142.170700,41.516399 
	C152.623871,44.182957 163.218491,46.308781 173.342789,50.221081 
	C177.865158,51.968647 180.925095,56.153084 186.041840,57.473694 
	C186.123718,56.603218 186.284821,55.990139 186.218460,55.402752 
	C185.954300,53.064705 185.386581,49.909744 187.549042,49.019604 
	C190.084030,47.976109 193.454697,47.816402 196.004471,50.009792 
	C198.696945,52.325943 201.712982,54.437119 202.697418,58.249741 
	C202.004852,58.622215 201.410583,59.160122 201.180054,59.033867 
	C195.491455,55.918507 191.593155,57.157894 189.087112,63.363159 
	C188.405273,65.051468 186.473038,66.389511 184.847000,67.494377 
	C183.468048,68.431335 181.608841,70.147369 180.010056,68.178856 
	C177.974503,65.672554 181.704086,65.674240 182.277374,63.821793 
	C180.313095,61.049870 176.771408,60.058678 174.234497,57.811653 
	C172.464478,56.243900 169.749466,55.785152 169.176865,52.780022 
	C168.994156,51.821186 167.286560,50.396458 165.942245,51.575554 
	C163.327194,53.869232 161.344223,52.434807 159.326782,50.859486 
	C156.643982,48.764599 153.306870,49.534016 150.316315,48.798965 
	C136.995972,45.524929 123.378174,44.057896 109.709686,45.179352 
	C83.464142,47.332710 60.414703,56.104630 44.203709,78.372536 
	C41.425396,82.188911 40.237911,86.348053 39.391186,90.775635 
	C39.025616,92.687233 39.288689,94.831024 37.501278,96.193474 
	C35.566795,96.594032 36.062141,94.446770 34.947029,93.483803 
	C34.346985,95.820045 34.072205,97.826920 33.299755,99.619324 
	C32.604122,101.233482 33.158180,103.279442 31.705200,104.549141 
	C29.167763,104.566406 30.257343,101.751892 28.756855,100.890137 
	C24.840826,104.049271 23.531958,108.297264 23.229431,112.847771 
	C22.667150,121.305466 22.677528,129.737213 25.924486,137.810333 
	C28.536818,144.305511 29.072741,151.424133 32.045895,157.853943 
	C33.038216,159.999939 33.890152,161.345123 36.299519,162.076736 
	C40.001656,163.200882 43.284008,165.288223 45.199329,168.893021 
	C47.526539,173.273026 51.571236,171.794724 54.998001,171.557220 
	C58.699257,171.300690 57.680054,167.886993 57.889519,165.625198 
	C59.720592,145.853348 57.264435,126.781288 48.337917,108.803780 
	C47.702164,107.523415 46.556389,106.303238 47.588070,104.385277 
	C50.742142,104.660072 52.667789,107.171066 54.905155,108.882080 
	C59.469929,112.372948 64.258018,113.797783 70.162170,113.698677 
	C84.980736,113.449936 99.813263,114.245682 114.637993,113.463814 
	C116.202629,113.381287 117.979301,113.364731 118.155228,115.313705 
	C118.398506,118.008942 116.064110,117.999413 114.312996,118.048950 
	C104.652168,118.322258 94.989120,118.544830 85.330002,117.889153 
	C81.013206,117.596115 76.690140,117.318230 72.365936,117.231201 
	C66.903717,117.121277 61.330383,117.931129 56.055363,114.572006 
	C57.759209,121.353638 59.828506,127.741028 60.809807,134.392517 
	C62.519367,145.980347 63.070747,157.549240 61.249542,169.192520 
	C60.561211,173.593140 58.463604,175.840256 53.930756,175.351807 
	C50.296684,174.960205 46.087124,176.661789 43.210609,172.290695 
	C43.000278,172.002533 43.029545,172.036636 43.029545,172.036636 
M111.433739,244.286682 
	C112.612083,245.457672 114.011734,246.478104 114.929115,247.826614 
	C118.274551,252.744263 122.376694,255.332733 128.558853,253.375275 
	C131.513443,252.439758 133.996429,250.626282 134.177200,247.817886 
	C134.376831,244.716461 131.408768,244.361725 128.732224,244.152542 
	C122.665359,243.678421 116.646423,242.764954 110.852165,241.258865 
	C110.160492,242.384644 110.468643,243.109360 111.433739,244.286682 
M235.130875,257.366486 
	C231.440079,256.105652 227.950287,254.183365 224.054733,253.745514 
	C221.797836,258.180634 221.750809,258.234924 224.926941,260.985962 
	C226.919205,262.711578 228.969315,264.415649 231.185211,265.828674 
	C236.163376,269.003174 239.833557,269.040344 241.246490,265.809845 
	C243.529495,260.589966 239.136307,259.389465 235.130875,257.366486 
M168.766098,293.452881 
	C172.885254,292.892792 174.078049,289.081726 176.203903,286.468536 
	C182.073410,279.253510 181.779495,278.691864 173.407990,274.490753 
	C169.908813,272.734772 168.319946,273.746094 168.281815,277.407379 
	C168.228241,282.555939 168.392334,287.706787 168.766098,293.452881 
M185.744431,332.806549 
	C183.563828,332.145630 183.100143,333.512604 183.089096,335.181366 
	C183.077927,336.873047 183.384277,338.652008 184.992188,339.505524 
	C187.215714,340.685822 188.566238,338.941711 190.031601,337.784393 
	C189.658798,335.335968 187.745041,334.437744 185.744431,332.806549 
M155.457764,252.623627 
	C157.264954,252.397858 158.407288,251.492813 158.681656,249.263794 
	C156.208618,248.532562 153.810760,247.951416 151.117813,248.664215 
	C151.567062,251.016953 153.371704,251.574631 155.457764,252.623627 
M238.475494,251.585739 
	C240.119492,250.672043 240.871140,249.471497 239.825562,247.624084 
	C235.767395,249.453369 235.759567,249.470413 238.475494,251.585739 
z"/>
<path fill="#000000" opacity="1.000000" stroke="none" 
	d="
M192.980270,101.987518 
	C193.144073,105.917366 196.701874,111.483643 203.150818,117.532776 
	C207.444839,112.944008 209.590652,107.300995 209.480698,101.428162 
	C209.367874,95.402954 211.884262,89.782753 211.227783,83.794701 
	C211.086197,82.503059 211.789520,81.476776 213.216019,81.424957 
	C215.218033,81.352226 215.757324,82.991646 215.919952,84.428764 
	C216.557587,90.063095 216.730606,95.735664 215.754440,101.342140 
	C214.744446,107.143036 212.677917,112.609337 209.230057,117.414009 
	C207.289444,120.118294 206.946701,122.674477 208.118378,125.813316 
	C210.673843,132.659348 213.116028,139.556946 214.729401,147.117493 
	C219.580170,146.688950 224.481583,146.212769 228.339966,149.934814 
	C230.748596,152.258347 232.933670,154.744431 233.242676,158.551056 
	C231.360992,159.205124 229.467743,160.418777 227.732269,158.738220 
	C226.379883,157.428619 227.938080,156.030655 228.396835,154.596405 
	C223.945389,154.039520 219.566803,153.491745 214.762527,152.890732 
	C215.534683,155.616653 213.662582,158.056396 214.635696,160.759918 
	C216.297913,162.204315 219.127396,159.974121 220.459808,162.622910 
	C220.535263,164.833801 217.866257,164.317291 217.085571,165.894714 
	C217.123459,167.758453 217.443817,169.344208 220.026459,169.451950 
	C222.373901,169.549835 224.794968,170.137024 226.353485,167.741043 
	C227.065674,166.646164 227.507721,165.360641 227.974594,164.124695 
	C228.632614,162.382614 229.155762,160.298264 231.633347,161.053329 
	C234.290314,161.863037 234.470200,163.981506 233.728104,166.330429 
	C232.745422,169.440857 231.226959,172.180832 228.236130,173.760529 
	C225.602921,175.151291 224.989044,176.922684 225.828262,179.901276 
	C227.650787,186.369812 227.744247,193.016312 227.007477,199.709045 
	C225.814987,210.541641 219.368683,218.229065 210.914841,223.711060 
	C207.436737,225.966446 203.999664,228.347565 200.601105,230.753586 
	C197.638977,232.850601 195.130295,232.832092 192.853058,228.953827 
	C201.790771,223.152328 211.051498,217.740128 219.249298,209.886429 
	C218.548355,207.498795 219.772644,204.601440 220.507538,201.573883 
	C223.381241,189.734833 220.711029,178.742340 214.536865,168.578262 
	C212.494339,165.215805 211.176422,161.909058 210.553589,158.017960 
	C208.442566,144.829300 205.471069,131.859863 198.871063,120.024193 
	C195.408691,113.815193 191.802017,107.753113 184.912079,104.699684 
	C186.812881,100.953880 189.352737,100.730652 192.675964,101.929253 
	C193.014938,102.010078 192.980270,101.987518 192.980270,101.987518 
z"/>
<path fill="#000000" opacity="1.000000" stroke="none" 
	d="
M59.393894,325.483459 
	C58.047482,324.937531 56.983795,324.514648 55.867641,324.070923 
	C54.692001,325.480286 56.806705,327.999176 54.113838,328.733887 
	C52.059921,329.294281 51.877213,327.102448 50.645271,326.483032 
	C45.933853,332.398956 37.575134,331.292999 34.801552,324.229889 
	C33.162445,320.055786 31.883509,316.275665 26.087746,316.587128 
	C23.299051,316.736969 19.602846,310.764191 20.169575,308.251221 
	C20.720957,305.806305 26.695732,303.207367 29.559179,304.172974 
	C30.030670,304.332001 30.479710,304.562317 30.956211,304.700989 
	C39.382416,307.153290 39.341438,307.134766 42.622383,298.906769 
	C43.667679,296.285370 44.960403,293.759033 46.210670,291.224121 
	C47.099384,289.422272 48.211155,288.174286 50.507755,289.484375 
	C52.786488,290.784271 51.594345,292.208435 50.886097,293.672058 
	C49.804466,295.907288 48.610760,298.095337 47.656891,300.383575 
	C46.424664,303.339569 44.172600,306.555786 49.262119,308.384491 
	C50.640289,308.879730 50.453655,310.204987 49.794762,311.353973 
	C48.986519,312.763397 47.859184,312.698822 46.379299,312.465149 
	C40.233562,311.494873 36.879528,315.379089 38.930317,320.931030 
	C39.973267,323.754517 42.986538,323.361115 45.306267,325.165344 
	C46.298386,318.707855 53.928368,322.321381 55.952785,316.924286 
	C53.181980,315.575195 48.928459,314.400482 52.856075,309.906799 
	C54.091625,308.493164 55.713497,307.865540 57.327660,308.730743 
	C61.513367,310.974365 66.416252,312.644989 67.151299,318.379486 
	C67.499077,321.092773 69.761917,321.610931 71.602821,322.592590 
	C77.070847,325.508453 82.424767,328.556335 85.708267,334.115997 
	C88.133446,338.222290 87.295433,339.794250 82.622353,340.264435 
	C77.958992,340.733765 73.513702,339.637939 69.734955,337.198212 
	C66.268570,334.960052 66.539986,330.367462 64.851555,326.724518 
	C63.033913,327.249481 61.063351,327.641022 59.393894,325.483459 
M29.164835,311.974457 
	C29.384949,308.696442 27.056414,309.265411 25.149067,309.408966 
	C24.046324,309.492004 23.243238,310.209290 23.604271,311.443298 
	C24.319651,313.888428 26.245485,312.726532 27.764013,312.708557 
	C28.080542,312.704834 28.395020,312.527863 29.164835,311.974457 
z"/>
<path fill="#000000" opacity="1.000000" stroke="none" 
	d="
M158.322769,463.710052 
	C165.768448,463.791382 172.753830,464.023224 179.731903,463.885498 
	C195.673477,463.570953 203.369156,454.903503 201.939270,439.140015 
	C201.849777,438.153198 201.751160,437.137299 202.496933,436.304199 
	C203.195663,435.975159 203.875336,436.122742 204.232788,436.732239 
	C208.520737,444.043884 208.784836,451.749481 204.999451,459.104065 
	C201.602432,465.704102 195.826996,469.391144 188.031036,469.329315 
	C178.055740,469.250183 168.079330,469.325562 158.103500,469.294647 
	C151.352173,469.273712 147.119202,465.113678 143.236786,460.176758 
	C148.217575,461.302460 152.702194,463.888184 158.322769,463.710052 
z"/>
<path fill="#000000" opacity="1.000000" stroke="none" 
	d="
M81.805038,457.371124 
	C92.772644,462.924805 104.164352,463.479980 115.684685,462.156891 
	C123.045082,461.311584 128.084503,456.888550 130.928589,450.043823 
	C132.190201,447.007507 133.394104,443.947235 135.151260,440.859131 
	C136.312302,444.963043 138.574234,449.069550 136.894043,453.327789 
	C133.691528,461.444153 128.553299,467.789032 119.084167,468.847778 
	C106.564728,470.247528 94.487717,468.999023 83.473328,462.277222 
	C81.274307,460.935211 78.743935,459.764130 77.972374,456.877075 
	C79.397194,455.310150 80.385361,456.826538 81.805038,457.371124 
z"/>
<path fill="#000000" opacity="1.000000" stroke="none" 
	d="
M182.663147,108.136276 
	C162.692917,113.983696 142.563095,116.505600 122.101700,117.235718 
	C120.620193,114.170731 121.616631,112.555069 124.809975,112.835281 
	C128.389832,113.149406 132.204956,110.578705 135.555328,113.659988 
	C140.130630,110.205818 145.699997,111.507713 150.787643,110.534065 
	C160.395691,108.695320 170.196182,107.948051 179.666260,105.267479 
	C182.828445,104.372391 183.028458,104.750626 182.663147,108.136276 
z"/>
<path fill="#000000" opacity="1.000000" stroke="none" 
	d="
M179.971344,187.209671 
	C179.520874,192.508530 175.630829,193.843872 171.799072,194.975861 
	C169.633163,195.615723 167.948746,194.614853 167.463013,192.096710 
	C169.394333,189.679382 173.118607,191.304169 174.964584,188.695892 
	C174.384659,186.514725 172.541656,186.815491 170.982956,186.712067 
	C169.303009,186.600616 166.762314,187.703857 166.904892,184.742157 
	C167.043182,181.869537 169.366348,181.590622 171.751678,182.083420 
	C172.372147,182.211594 172.988098,182.361572 174.409912,182.683563 
	C173.729401,179.286728 172.088928,177.987274 169.263840,178.233948 
	C166.953888,178.435669 164.679871,179.021973 162.372772,179.290863 
	C159.964493,179.571564 157.703384,179.282852 156.229599,176.952652 
	C155.392685,175.629440 154.545502,174.275116 156.067215,172.969421 
	C157.534637,171.710297 158.977097,172.165955 159.775620,173.759384 
	C160.919449,176.041901 162.818405,175.920883 164.416428,175.016083 
	C168.508804,172.699020 171.824600,175.900238 175.508835,176.299988 
	C176.939026,176.455185 177.340591,178.289398 177.166077,179.583008 
	C176.765366,182.552917 178.397934,184.633469 179.971344,187.209671 
z"/>
<path fill="#000000" opacity="1.000000" stroke="none" 
	d="
M166.305573,150.239136 
	C158.325500,149.004288 156.800446,148.191315 154.772156,144.075562 
	C157.803223,142.761673 160.612854,144.143356 163.404556,144.669830 
	C176.916824,147.218124 179.683731,146.096344 187.247284,134.768600 
	C187.715973,134.066666 188.252182,133.444519 189.205200,133.453491 
	C191.431137,137.726395 189.115707,143.910172 184.071213,147.045380 
	C178.727585,150.366501 172.801041,150.652161 166.305573,150.239136 
z"/>
<path fill="#000000" opacity="1.000000" stroke="none" 
	d="
M210.203049,267.065369 
	C214.336685,267.972198 217.047699,270.788269 220.219696,272.732605 
	C223.841400,274.952576 226.665665,278.380798 230.827728,279.941772 
	C232.232788,280.468689 233.390564,281.790466 232.559708,283.508331 
	C231.849060,284.977783 230.307022,284.858276 229.054291,284.387573 
	C221.307404,281.476685 215.255630,276.053009 209.229492,270.656982 
	C208.093872,269.640106 207.762955,267.956970 210.203049,267.065369 
z"/>
<path fill="#000000" opacity="1.000000" stroke="none" 
	d="
M77.579376,146.802689 
	C79.305862,147.451065 80.867599,147.771713 82.044830,148.623642 
	C87.119286,152.295944 92.725044,152.625687 98.626724,151.705338 
	C100.376663,151.432465 102.663002,150.812943 102.793884,153.627121 
	C102.896492,155.833328 100.861343,156.088684 99.202820,156.194580 
	C91.442360,156.690033 83.848022,156.222473 77.355972,151.240356 
	C74.639900,149.156006 74.719948,148.174255 77.579376,146.802689 
z"/>
<path fill="#000000" opacity="1.000000" stroke="none" 
	d="
M207.469391,277.429413 
	C214.449524,282.218384 221.115250,286.825134 227.780991,291.431885 
	C227.378754,292.009125 226.976517,292.586334 226.574280,293.163574 
	C216.937164,290.714478 210.430161,283.360291 202.614502,277.763855 
	C204.667221,275.245728 205.879929,276.808746 207.469391,277.429413 
z"/>
<path fill="#000000" opacity="1.000000" stroke="none" 
	d="
M197.270660,296.666016 
	C201.629150,299.888977 207.349564,301.114441 209.140549,307.118774 
	C203.115860,307.019012 190.158493,298.263123 188.952194,293.571533 
	C192.370865,292.600433 194.374542,295.419861 197.270660,296.666016 
z"/>
<path fill="#000000" opacity="1.000000" stroke="none" 
	d="
M144.085083,283.142303 
	C144.053131,286.273529 144.063812,288.937012 143.965637,291.596497 
	C143.926453,292.657928 143.394119,293.534698 142.198990,293.649017 
	C141.147415,293.749603 140.218109,293.364624 139.561600,292.524475 
	C137.624710,290.045776 139.162231,277.635132 141.664459,275.650482 
	C141.862839,275.493164 142.294357,275.629761 142.766861,275.629761 
	C144.559830,277.657227 143.809967,280.271271 144.085083,283.142303 
z"/>
<path fill="#000000" opacity="1.000000" stroke="none" 
	d="
M195.741058,308.243408 
	C199.374695,311.104248 204.501572,311.655670 206.106827,316.674164 
	C201.386032,317.598419 186.900146,307.948395 185.151688,302.555328 
	C189.698074,302.723328 192.225677,306.092743 195.741058,308.243408 
z"/>
<path fill="#000000" opacity="1.000000" stroke="none" 
	d="
M152.039505,161.160034 
	C153.895630,163.167633 156.012314,162.527267 157.953079,162.719849 
	C162.778900,163.198730 165.045425,166.495026 163.553970,172.342636 
	C160.745163,167.726562 156.657394,167.319427 152.311813,166.610489 
	C149.922043,166.220612 147.675522,163.071915 147.419388,159.766129 
	C149.531738,158.167297 150.485550,160.098587 152.039505,161.160034 
z"/>
<path fill="#000000" opacity="1.000000" stroke="none" 
	d="
M42.985020,171.986099 
	C43.293266,175.226974 40.229111,176.487045 38.742825,180.401291 
	C37.161171,175.748123 37.009346,171.538712 31.699299,170.547531 
	C36.566135,167.355194 39.320866,170.362885 42.684914,171.917328 
	C43.029545,172.036636 43.000278,172.002533 42.985020,171.986099 
z"/>
<path fill="#000000" opacity="1.000000" stroke="none" 
	d="
M199.230408,88.956635 
	C195.806900,87.886024 195.556549,85.521416 196.270309,82.924042 
	C196.821671,80.917717 196.006287,78.678162 197.302307,76.760696 
	C202.130219,81.341583 202.690216,84.498199 199.230408,88.956635 
z"/>
<path fill="#000000" opacity="1.000000" stroke="none" 
	d="
M205.652023,294.996216 
	C202.591431,292.251373 198.811264,290.690155 196.891190,286.913116 
	C199.180969,286.571899 208.472687,290.648621 208.827866,292.181488 
	C209.332825,294.360718 208.471375,295.690399 205.652023,294.996216 
z"/>
<path fill="#000000" opacity="1.000000" stroke="none" 
	d="
M207.751892,69.985001 
	C203.472977,70.865097 202.595444,67.572456 201.354874,65.033966 
	C200.247467,62.767967 201.674332,61.371685 204.038818,60.324772 
	C206.113892,63.172539 207.977554,66.051140 207.751892,69.985001 
z"/>
<path fill="#000000" opacity="1.000000" stroke="none" 
	d="
M193.032425,102.021530 
	C192.812912,101.257652 192.162643,99.978363 192.401093,99.782852 
	C195.789368,97.004425 195.699005,93.230614 194.900635,88.986496 
	C200.790024,92.700333 200.015076,97.506020 193.299591,101.853500 
	C192.980270,101.987518 193.014938,102.010078 193.032425,102.021530 
z"/>
<path fill="#000000" opacity="1.000000" stroke="none" 
	d="
M217.538956,311.173645 
	C221.366592,307.614014 223.167374,311.016968 225.552399,312.932770 
	C221.932693,317.165588 220.392792,316.834930 217.538956,311.173645 
z"/>
<path fill="#000000" opacity="1.000000" stroke="none" 
	d="
M141.402252,178.000000 
	C140.403320,176.115097 139.861847,174.090866 142.591370,174.610703 
	C144.882141,175.046997 146.669067,173.426468 148.781097,173.869003 
	C149.189758,178.229050 146.921677,179.600876 141.402252,178.000000 
z"/>
<path fill="#000000" opacity="1.000000" stroke="none" 
	d="
M200.694733,326.338684 
	C196.596222,325.768860 193.678726,324.028625 191.946777,320.256622 
	C197.864441,320.485870 200.847260,322.546448 200.694733,326.338684 
z"/>
<path fill="#000000" opacity="1.000000" stroke="none" 
	d="
M189.296021,314.877441 
	C190.373611,316.726349 189.848969,318.215820 188.183411,317.645569 
	C185.301178,316.658813 182.790970,314.819244 182.453903,310.967255 
	C186.233215,310.039948 187.306900,312.938538 189.296021,314.877441 
z"/>
<path fill="#000000" opacity="1.000000" stroke="none" 
	d="
M110.531067,152.432037 
	C109.287033,153.166748 108.518227,154.162643 106.955795,153.953476 
	C106.329941,151.266541 106.408035,148.913742 109.655678,147.904297 
	C110.924683,147.509827 112.419174,147.213058 113.142487,148.701889 
	C114.254044,150.989899 111.994072,151.328568 110.531067,152.432037 
z"/>
<path fill="#000000" opacity="1.000000" stroke="none" 
	d="
M227.244141,317.190033 
	C230.780121,315.163452 231.280426,315.523987 232.295929,320.710907 
	C229.031601,322.127136 227.923660,320.202087 227.244141,317.190033 
z"/>
<path fill="#000000" opacity="1.000000" stroke="none" 
	d="
M237.714081,323.069336 
	C238.287918,321.890961 238.567139,320.899445 240.030701,320.673401 
	C241.441269,322.168304 242.201233,324.068695 241.520203,326.158417 
	C241.131226,327.351929 239.690567,327.415497 238.558777,327.008179 
	C236.607910,326.306091 237.013885,324.854462 237.714081,323.069336 
z"/>
<path fill="#000000" opacity="1.000000" stroke="none" 
	d="
M213.095581,298.848053 
	C211.584000,298.266418 210.323166,297.869080 209.586243,296.292450 
	C211.161102,294.747894 213.113998,293.802856 214.874283,295.529755 
	C216.315948,296.944061 215.647949,298.518524 213.095581,298.848053 
z"/>
</svg>