<?xml version="1.0" encoding="UTF-8" standalone="no"?>
<!-- Created with Inkscape (http://www.inkscape.org/) -->
<svg
   xmlns:svg="http://www.w3.org/2000/svg"
   xmlns="http://www.w3.org/2000/svg"
   xmlns:inkscape="http://www.inkscape.org/namespaces/inkscape"
   version="1.0"
   width="300"
   height="220.00002"
   id="svg2439">
  <defs
     id="defs2442">
    <filter
       id="filter23764">
      <feGaussianBlur
         id="feGaussianBlur23766"
         stdDeviation="7.0666489"
         inkscape:collect="always" />
    </filter>
  </defs>
  <g
     transform="matrix(0.3715444,0,0,0.3715149,3.4862865,0.4542154)"
     id="g24802">
    <g
       id="g23799">
      <g
         id="g18741">
        <path
           d="M 661.50677,252.45679 L 661.52046,294.25147 L 648.91087,297.17048 L 637.50283,290.24415 L 637.53045,260.77111 L 661.50677,252.45679 z "
           style="fill:#bb9c6d;fill-opacity:1;fill-rule:evenodd;stroke:#000000;stroke-width:2.3097918px;stroke-linecap:round;stroke-linejoin:round;stroke-opacity:1"
           id="path3449" />
        <path
           d="M 649.31829,296.532 L 649.36666,256.49654"
           style="fill:#b89766;fill-opacity:0.95;fill-rule:evenodd;stroke:#000000;stroke-width:2.3097918px;stroke-linecap:round;stroke-linejoin:round;stroke-opacity:1"
           id="path3451" />
      </g>
      <g
         id="g23768">
        <path
           d="M 163.65554,424.19153 L 179.4153,420.45473 L 179.54044,378.15164 L 156.18978,380.23098 L 156.21973,418.47842 L 163.65554,424.19153 z "
           style="fill:#bb9c6d;fill-opacity:1;fill-rule:evenodd;stroke:#000000;stroke-width:2.30999994;stroke-linecap:round;stroke-linejoin:round;stroke-miterlimit:4;stroke-dasharray:none;stroke-opacity:1"
           id="path23945" />
        <path
           d="M 163.97411,423.45575 L 163.97411,381.88902"
           style="fill:none;fill-opacity:0.75;fill-rule:evenodd;stroke:#000000;stroke-width:2.30999994;stroke-linecap:round;stroke-linejoin:round;stroke-miterlimit:4;stroke-dasharray:none;stroke-opacity:1"
           id="path6101" />
      </g>
      <path
         d="M 796.49081,219.85698 L 76.051118,408.83164 L 16.344876,332.30764 C 10.797292,324.04814 10.070771,312.57461 8.4550765,301.69386 C 2.0353993,254.16681 4.825962,220.59782 -8.2283799,174.26804 C -3.1224066,173.61678 -3.1272712,170.22477 1.9202166,169.21459 C 4.5102333,168.69624 470.7773,114.94592 702.62417,86.67519 C 713.33887,97.046665 714.74309,143.4513 716.21064,163.02079 C 717.36302,178.29771 727.15832,182.03516 727.15832,182.03516 L 796.60391,207.04443 L 796.49081,219.85698 z "
         style="fill:#bb9c6d;fill-opacity:1;fill-rule:evenodd;stroke:#000000;stroke-width:2.3097918px;stroke-linecap:round;stroke-linejoin:round;stroke-opacity:1"
         id="path3421" />
      <path
         d="M 796.90244,206.81312 L 76.160277,395.01048 L 796.90244,206.81312 z M 8.9535013,199.24141 L 706.25352,104.76608 M 11.990533,225.53029 L 712.17729,120.38249 M 13.746561,248.36607 L 713.32966,131.90635 M 15.303816,268.97807 L 713.32966,145.73499 M 17.692997,289.46252 L 715.70841,159.74336 M 20.630054,310.92564 L 717.56385,172.50948 M 24.73191,328.30461 L 725.78399,181.3532 M 34.653801,340.13861 L 735.80121,185.20422 M 44.840844,353.48564 L 746.6941,189.60892 M 52.962131,363.52862 L 757.08356,192.66465 M 58.811662,371.35359 L 765.76325,196.15189 M 68.750215,384.35931 L 779.89964,201.11882 M 76.38521,394.93509 L 76.38521,408.89008 M 1.5509965,169.33999 C 15.811732,212.48544 13.821824,263.84912 19.081106,308.4862 C 20.675605,320.56391 25.529518,331.38979 30.847575,337.98023 L 77.032823,395.26847"
         style="fill:none;fill-opacity:1;fill-rule:evenodd;stroke:#000000;stroke-width:2.3097918px;stroke-linecap:round;stroke-linejoin:round;stroke-opacity:1"
         id="path3419" />
    </g>
    <path
       d="M 130.87526,154.73164 L 140.38017,253.43645 C 140.38017,253.43645 149.88508,281.95117 148.42279,322.89539 C 147.59528,345.65178 146.96049,387.96745 146.96049,387.96745 L 230.31122,368.22648 C 230.31122,368.22648 210.57026,316.31507 254.43906,299.4987 C 254.43906,299.4987 307.81277,350.67897 320.97341,346.29208 C 348.41334,337.14542 401.39955,321.4331 401.39955,321.4331 L 373.61598,208.8365 L 348.02584,134.99068"
       style="fill:#000000;fill-opacity:0.33944953;fill-rule:evenodd;stroke:none;stroke-width:1px;stroke-linecap:butt;stroke-linejoin:miter;stroke-opacity:1;filter:url(#filter23764)"
       id="path22705" />
    <g
       id="g24778">
      <path
         d="M 332.68428,238.52441 C 332.68428,238.52441 298.397,256.06675 248.56079,253.67461 C 198.72461,251.28248 299.19436,149.61665 299.19436,149.61665 L 368.16765,198.25677 L 364.57944,229.35456 C 364.57944,229.35456 342.65152,229.75325 332.68428,238.52441 z "
         style="fill:#000000;fill-opacity:1;fill-rule:evenodd;stroke:#989898;stroke-width:2.3097918px;stroke-linecap:butt;stroke-linejoin:miter;stroke-opacity:1"
         id="path20055" />
      <path
         d="M 255.83229,68.525103 C 255.83229,68.525103 249.49418,50.086923 242.57984,72.558456 C 242.57984,72.558456 208.00826,65.067945 165.94616,102.5205 C 165.94616,102.5205 157.87945,108.28243 157.30326,127.873 C 157.30326,127.873 157.87945,213.72578 163.06519,235.04493 C 163.06519,235.04493 176.31764,288.6309 197.06059,300.15475 C 197.06059,300.15475 218.95593,303.03573 224.14167,296.69759 C 229.32741,290.35948 256.4085,251.75454 269.66093,246.56881 C 269.66093,246.56881 305.3849,182.61135 319.21353,172.23988 C 319.21353,172.23988 352.05655,220.6401 355.51371,223.52107 C 355.51371,223.52107 377.40906,264.43077 395.27105,266.15937 C 413.13304,267.88795 424.65689,267.31175 428.69025,253.48312 C 432.7236,239.65447 420.04735,206.23527 420.04735,206.23527 L 397.5758,161.8684 C 397.5758,161.8684 380.86622,106.55385 373.9519,99.639535 C 367.03759,92.725218 352.05655,70.253684 255.83229,68.525103 z "
         style="fill:#000000;fill-opacity:1;fill-rule:evenodd;stroke:#000000;stroke-width:2.3097918px;stroke-linecap:butt;stroke-linejoin:miter;stroke-opacity:1"
         id="path8357" />
      <path
         d="M 267.93235,240.80687 C 267.93235,240.80687 255.25609,217.75914 248.34178,214.30198"
         style="fill:none;fill-rule:evenodd;stroke:#000000;stroke-width:2.3097918px;stroke-linecap:butt;stroke-linejoin:miter;stroke-opacity:1"
         id="path8361" />
      <path
         d="M 376.25666,200.47334 C 376.25666,200.47334 375.10428,221.79249 360.69945,224.09726"
         style="fill:none;fill-rule:evenodd;stroke:#000000;stroke-width:2.3097918px;stroke-linecap:butt;stroke-linejoin:miter;stroke-opacity:1"
         id="path8363" />
      <path
         d="M 254.67992,69.67749 C 254.67992,69.67749 243.15604,61.034592 246.037,74.863229 C 248.91798,88.691864 255.83229,88.115673 255.83229,88.115673 C 255.83229,88.115673 267.93235,122.11107 274.27048,127.29681 C 280.6086,132.48255 342.26128,110.01101 342.26128,110.01101 C 342.26128,110.01101 346.29462,99.063342 345.71844,89.844252 C 345.14224,80.625161 316.90878,65.644139 316.90878,65.644139 L 254.67992,69.67749 z "
         style="fill:#7b7b7b;fill-opacity:1;fill-rule:evenodd;stroke:#585858;stroke-width:2.3097918px;stroke-linecap:butt;stroke-linejoin:miter;stroke-opacity:1"
         id="path14191" />
      <path
         d="M 252.88881,59.638717 C 252.88881,59.638717 241.48075,5.0430841 300.96556,0.15392278 C 360.45036,-4.7352383 357.1909,72.67648 357.1909,94.677705 C 357.1909,94.677705 343.33829,104.45603 334.37482,91.418266 C 334.07484,90.99151 335.04366,88.962476 333.55997,88.158824 C 333.55997,88.158824 315.63303,103.64117 293.6318,102.01145 L 285.48321,93.047986 L 266.74142,93.047986 L 262.66713,79.195363 L 252.88881,59.638717 z "
         style="fill:#000000;fill-opacity:1;fill-rule:evenodd;stroke:#7d7d7d;stroke-width:2.3097918px;stroke-linecap:butt;stroke-linejoin:miter;stroke-opacity:1"
         id="path4441" />
      <path
         d="M 305.03987,14.006546 C 305.03987,14.006546 287.9278,8.3025249 276.51976,14.006546"
         style="fill:#000000;fill-opacity:1;fill-rule:evenodd;stroke:#7d7d7d;stroke-width:2.3097918px;stroke-linecap:round;stroke-linejoin:round;stroke-opacity:1"
         id="path4443" />
      <path
         d="M 310.74387,30.303751 C 310.74387,30.303751 278.14948,35.192912 267.55629,46.600955"
         style="fill:#000000;fill-opacity:1;fill-rule:evenodd;stroke:#7d7d7d;stroke-width:2.3097918px;stroke-linecap:round;stroke-linejoin:round;stroke-opacity:1"
         id="path4445" />
      <path
         d="M 320.52219,46.600955 C 320.52219,46.600955 296.89124,61.268437 279.7792,66.157599"
         style="fill:#000000;fill-opacity:1;fill-rule:evenodd;stroke:#7d7d7d;stroke-width:2.3097918px;stroke-linecap:round;stroke-linejoin:round;stroke-opacity:1"
         id="path4447" />
      <path
         d="M 327.85594,22.97001 C 327.85594,22.97001 332.7451,18.080847 341.70857,26.229449"
         style="fill:#000000;fill-opacity:1;fill-rule:evenodd;stroke:#7d7d7d;stroke-width:2.3097918px;stroke-linecap:round;stroke-linejoin:round;stroke-opacity:1"
         id="path4449" />
      <path
         d="M 331.93025,38.452352 C 331.93025,38.452352 339.26398,32.74833 346.59773,38.452352"
         style="fill:#000000;fill-opacity:1;fill-rule:evenodd;stroke:#7d7d7d;stroke-width:2.3097918px;stroke-linecap:round;stroke-linejoin:round;stroke-opacity:1"
         id="path4451" />
      <path
         d="M 328.67079,74.306202 C 328.67079,74.306202 318.07762,84.084523 301.7804,88.158824"
         style="fill:#000000;fill-opacity:1;fill-rule:evenodd;stroke:#7d7d7d;stroke-width:2.3097918px;stroke-linecap:round;stroke-linejoin:round;stroke-opacity:1"
         id="path4453" />
      <path
         d="M 313.18846,89.788546 C 313.18846,89.788546 311.55874,95.492568 293.6318,97.122287"
         style="fill:#000000;fill-opacity:1;fill-rule:evenodd;stroke:#7d7d7d;stroke-width:2.3097918px;stroke-linecap:round;stroke-linejoin:round;stroke-opacity:1"
         id="path4455" />
      <path
         d="M 296.0764,72.67648 C 291.18724,73.491342 291.18724,75.935922 274.07517,78.380501"
         style="fill:#000000;fill-opacity:1;fill-rule:evenodd;stroke:#7d7d7d;stroke-width:2.3097918px;stroke-linecap:round;stroke-linejoin:round;stroke-opacity:1"
         id="path4457" />
      <path
         d="M 321.33706,58.823858 L 305.03987,74.306202"
         style="fill:#000000;fill-opacity:1;fill-rule:evenodd;stroke:#7d7d7d;stroke-width:2.3097918px;stroke-linecap:round;stroke-linejoin:round;stroke-opacity:1"
         id="path4459" />
      <path
         d="M 333.55997,54.749556 C 333.55997,54.749556 331.11538,47.415815 346.59773,56.379278"
         style="fill:#000000;fill-opacity:1;fill-rule:evenodd;stroke:#7d7d7d;stroke-width:2.30999994;stroke-linecap:round;stroke-linejoin:round;stroke-miterlimit:4;stroke-dasharray:none;stroke-opacity:1"
         id="path4461" />
      <path
         d="M 318.89247,11.561966 C 318.89247,11.561966 321.33706,3.4133636 308.29931,3.4133636"
         style="fill:#000000;fill-opacity:1;fill-rule:evenodd;stroke:#7d7d7d;stroke-width:2.3097918px;stroke-linecap:round;stroke-linejoin:round;stroke-opacity:1"
         id="path4463" />
      <path
         d="M 359.54707,221.79249 C 356.39127,223.18025 305.65374,144.15451 314.29527,134.00103 C 322.93683,123.84755 319.99459,120.20075 320.49718,119.5471 C 320.08058,117.16154 319.51822,101.94932 321.36185,99.459799 C 325.16413,96.406266 328.03003,116.23418 328.03003,116.23418 C 327.71451,109.67133 325.47884,96.858153 328.43362,95.206595 C 332.10492,94.280253 333.16615,106.09295 335.21182,110.77363 C 334.75113,105.85572 331.38276,99.385643 333.60522,94.084433 C 339.22356,93.312092 333.5147,91.058791 334.16729,92.96032 C 341.27629,91.667774 343.87985,122.83264 330.71011,145.3939 C 330.71011,145.3939 361.85185,185.49232 373.9519,191.83044 C 373.9519,191.83044 383.171,209.69243 359.54707,221.79249 z M 310.36883,138.23438 L 303.10548,144.74553 C 285.8197,158.57416 270.81333,241.95925 270.81333,241.95925 C 269.66093,233.31635 248.34178,208.54004 248.34178,208.54004 C 244.91135,190.45335 284.84141,152.65867 275.42286,139.19909 C 275.42286,139.19909 266.39146,135.64103 268.69622,124.69335 C 268.69622,124.69335 266.52062,111.78799 269.4016,106.02606 C 269.4016,106.02606 277.10806,113.77493 276.53186,122.99402 C 276.53186,122.99402 290.9491,93.256689 294.07796,94.760558 C 297.29929,96.308873 292.2344,115.83473 291.26866,118.54291 C 291.26866,118.54291 303.05284,93.549675 308.26685,96.430641 C 311.20756,98.055508 300.53307,120.70046 300.53307,120.70046 C 300.53307,120.70046 313.95693,97.948227 316.46077,100.03502 C 323.02804,105.50836 304.80873,128.25142 304.80873,128.25142 C 304.80873,128.25142 317.2115,112.77903 319.51625,112.20283 C 321.82103,111.62664 314.604,128.25142 316.33258,128.25142 L 310.36883,138.23438 z "
         style="fill:#a4a4a4;fill-opacity:1;fill-rule:evenodd;stroke:#595959;stroke-width:2.3097918px;stroke-linecap:butt;stroke-linejoin:miter;stroke-opacity:1"
         id="path11272" />
      <path
         d="M 239.78964,490.49617 C 241.38439,490.89486 254.93984,492.48961 254.54114,501.65948 C 254.14245,510.82933 249.75687,512.02539 252.5477,518.00574 C 255.33853,523.98609 257.33197,532.75725 257.33197,540.73104 C 257.33197,548.70484 263.31232,575.41702 258.52803,579.00524 C 253.74376,582.59343 238.19489,597.74363 221.84861,587.37772 C 205.50233,577.0118 203.50888,559.07077 203.11019,553.48911 C 202.7115,547.90745 204.30627,521.19526 204.30627,521.19526 L 214.27351,498.46996 L 239.78964,490.49617 z "
         style="fill:#a0a0a0;fill-opacity:1;fill-rule:evenodd;stroke:none;stroke-width:2.3097918px;stroke-linecap:butt;stroke-linejoin:miter;stroke-opacity:1"
         id="path22974" />
      <path
         d="M 392.08901,425.11109 C 392.08901,425.11109 386.90604,422.71896 384.9126,430.29406 C 382.91916,437.86916 376.54014,455.81019 378.13489,463.38529 C 379.72964,470.96039 395.67722,479.33285 399.66411,483.71845 C 403.65102,488.10403 402.05625,501.65948 407.23921,506.84243 C 412.42217,512.02539 418.00383,521.59396 429.56584,520.79657 C 441.12783,519.99918 451.49376,517.60705 454.28459,514.01886 C 457.07541,510.43064 455.48064,494.08438 454.28459,490.09747 C 453.08851,486.11059 443.12127,477.7381 442.32388,473.35252 C 441.52652,468.96695 441.92521,462.5879 436.74225,457.40494 C 431.55928,452.22197 396.87328,427.50323 396.87328,427.50323 L 392.08901,425.11109 z "
         style="fill:#aaaaaa;fill-opacity:1;fill-rule:evenodd;stroke:none;stroke-width:2.3097918px;stroke-linecap:butt;stroke-linejoin:miter;stroke-opacity:0.94444442"
         id="path21995" />
      <path
         d="M 388.93291,424.6125 C 388.93291,424.6125 397.5758,342.21686 398.152,332.42158 C 398.7282,322.6263 389.50911,320.32153 389.50911,320.32153 C 334.19457,336.45494 275.42286,304.76432 275.42286,304.76432 C 275.42286,309.37385 246.6132,333.57398 246.6132,333.57398 L 254.67992,343.36925 L 243.73224,357.77408 L 243.15604,366.41698 C 248.34178,373.90749 248.34178,376.78845 250.07036,380.82181 C 254.10372,399.8362 244.88462,474.16511 244.88462,474.16511 C 250.64656,476.46989 251.79894,489.14612 251.79894,489.14612 C 251.79894,496.06046 244.30842,508.16051 244.30842,508.16051 C 231.05599,533.51301 207.43206,524.8701 206.85586,521.98914 C 203.39871,516.2272 200.51775,501.24619 200.51775,501.24619 C 198.0144,490.81954 200.77792,472.66874 199.94155,464.94601 C 175.74142,440.74591 166.52235,365.8408 166.52235,365.8408 C 166.52235,365.8408 174.58904,365.2646 178.6224,356.0455 C 182.65576,346.82641 166.52235,342.79307 166.52235,342.79307 C 168.25093,335.30256 176.89382,330.693 176.89382,330.693 L 169.97951,328.38824 C 159.60801,286.32613 185.53672,263.8546 189.85815,262.41412 L 253.52752,254.05931 C 313.45162,256.94029 333.61836,239.65448 333.61836,239.65448 C 356.66609,239.65448 426.38547,260.97362 426.38547,260.97362 C 437.33314,263.2784 467.87138,289.78328 467.87138,289.78328 C 474.20952,298.42618 470.17616,324.93108 470.17616,324.93108 C 470.75234,334.15016 463.83802,334.15016 463.83802,334.15016 C 463.83802,341.06449 458.65229,362.38364 458.65229,362.38364 C 458.65229,366.99318 450.00939,371.60271 450.00939,371.60271 C 451.73797,387.15994 447.70461,424.6125 445.97603,430.37442 C 444.24745,436.13635 436.75696,440.16971 436.75696,440.16971 C 436.75696,440.16971 436.18076,455.72692 436.18076,459.18408 C 436.18076,462.64124 427.53787,467.25079 417.74257,468.97937 C 407.9473,470.70795 397.5758,453.99834 390.08531,447.66023 C 382.59479,441.32209 388.93291,424.6125 388.93291,424.6125 z "
         style="fill:#000000;fill-opacity:1;fill-rule:evenodd;stroke:#000000;stroke-width:2.3097918px;stroke-linecap:butt;stroke-linejoin:miter;stroke-opacity:1"
         id="path19077" />
      <path
         d="M 316.49395,17.91462 C 316.49395,17.91462 330.56701,33.784232 333.26185,88.878733"
         style="fill:none;fill-opacity:0.75;fill-rule:evenodd;stroke:#7d7d7d;stroke-width:2.30999994;stroke-linecap:round;stroke-linejoin:round;stroke-miterlimit:4;stroke-dasharray:none;stroke-opacity:1"
         id="path8043" />
    </g>
  </g>
</svg>
