<?xml version="1.0" encoding="utf-8"?>
<!-- Generator: Adobe Illustrator 23.0.0, SVG Export Plug-In . SVG Version: 6.00 Build 0)  -->
<svg version="1.1" id="Layer_1" xmlns="http://www.w3.org/2000/svg" xmlns:xlink="http://www.w3.org/1999/xlink" x="0px" y="0px"
	 viewBox="0 0 500 500" style="enable-background:new 0 0 500 500;" xml:space="preserve">
<style type="text/css">
	.st0{fill:#83E1E5;}
	.st1{fill:#AAB1BA;}
	.st2{fill:#FDDF7F;}
	.st3{fill:#ECF4F7;}
	.st4{fill:#1C1D21;}
</style>
<g>
	<g>
		<path class="st0" d="M351.134,472.293l-38.14-116.454c-16.919,14.55-38.929,23.346-62.994,23.346s-46.074-8.796-62.994-23.346
			l-38.14,116.454C144.43,485.839,131.791,495,117.536,495h264.928C368.21,495,355.571,485.839,351.134,472.293z"/>
	</g>
</g>
<g>
	<g>
		<path class="st2" d="M380.771,375.292l-16.829-38.793c-2.206-5.085-3.345-10.57-3.345-16.113V290.81
			c0-8.295-1.676-16.505-4.928-24.137l-15.185-35.637c-2.182-5.12-7.21-8.443-12.776-8.443h-1.853
			c-17.705-22.382-45.102-36.745-75.855-36.745s-58.15,14.363-75.855,36.745h-1.853c-5.566,0-10.594,3.323-12.776,8.443
			l-15.185,35.637c-3.252,7.631-4.928,15.841-4.928,24.137v29.575c0,5.543-1.138,11.028-3.345,16.113l-16.829,38.793H84.533v87.644
			l0.021-0.039C85.002,479.931,98.856,495,117.536,495h0c14.254,0,26.894-9.161,31.33-22.707l38.14-116.454
			c16.919,14.549,38.929,23.346,62.994,23.346s46.074-8.797,62.994-23.346l38.14,116.454C355.571,485.839,368.21,495,382.464,495h0
			c18.68,0,32.534-15.069,32.983-32.103l0.021,0.039v-87.644H380.771z"/>
	</g>
</g>
<g>
	<path class="st3" d="M151.234,250.475l8.282-19.438c2.182-5.12,7.21-8.443,12.776-8.443h1.853
		c17.705-22.382,45.102-36.745,75.855-36.745s58.15,14.363,75.855,36.745h1.853c5.566,0,10.594,3.323,12.776,8.443l8.282,19.438
		c36.553-9.956,59.991-25.313,59.991-42.547c0-15.42-18.766-29.34-48.902-39.231c10.468-23.972,12.071-43.238,2.403-52.906
		c-11.921-11.921-38.431-6.716-70.367,11.123c0.071,0.25,0.138,0.51,0.209,0.762c-9.964-35.632-25.121-58.384-42.1-58.384
		s-32.136,22.752-42.1,58.384c0.07-0.252,0.138-0.512,0.209-0.762c-31.936-17.839-58.446-23.044-70.367-11.123
		c-9.668,9.668-8.064,28.935,2.403,52.906c-30.136,9.892-48.902,23.811-48.902,39.231
		C91.243,225.161,114.681,240.519,151.234,250.475z"/>
</g>
<g>
	<g>
		<path class="st0" d="M139.404,299.226h-6.64c-26.637,0-48.231,21.594-48.231,48.231v27.834h34.698l16.829-38.793
			c0.552-1.271,1.036-2.568,1.453-3.883c0.417-1.316,0.766-2.651,1.046-4.001c0.56-2.7,0.845-5.457,0.845-8.229L139.404,299.226
			L139.404,299.226z"/>
	</g>
</g>
<g>
	<g>
		<path class="st0" d="M367.237,299.226h-6.64h0v21.159c0,2.772,0.285,5.529,0.845,8.229c0.28,1.35,0.629,2.685,1.046,4.001
			c0.417,1.315,0.902,2.612,1.453,3.883l16.829,38.793h34.698v-27.834C415.468,320.82,393.874,299.226,367.237,299.226z"/>
	</g>
</g>
<path class="st4" d="M233.466,16.535c0-2.761,2.239-5,5-5H245V5c0-2.761,2.239-5,5-5s5,2.239,5,5v6.535h6.535c2.762,0,5,2.239,5,5
	s-2.238,5-5,5H255v6.534c0,2.761-2.238,5-5,5s-5-2.239-5-5v-6.534h-6.535C235.705,21.535,233.466,19.296,233.466,16.535z
	 M122.009,80.056h6.535v6.535c0,2.761,2.239,5,5,5s5-2.239,5-5v-6.535h6.534c2.761,0,5-2.239,5-5s-2.239-5-5-5h-6.534v-6.535
	c0-2.761-2.239-5-5-5s-5,2.239-5,5v6.535h-6.535c-2.761,0-5,2.239-5,5S119.248,80.056,122.009,80.056z M354.923,80.056h6.535v6.535
	c0,2.761,2.238,5,5,5s5-2.239,5-5v-6.535h6.534c2.762,0,5-2.239,5-5s-2.238-5-5-5h-6.534v-6.535c0-2.761-2.238-5-5-5s-5,2.239-5,5
	v6.535h-6.535c-2.762,0-5,2.239-5,5S352.161,80.056,354.923,80.056z M250,341.445c-8.972,0-17.313,4.04-22.885,11.084
	c-1.713,2.166-1.346,5.31,0.819,7.023c0.918,0.727,2.012,1.079,3.099,1.079c1.476,0,2.938-0.65,3.925-1.898
	c3.664-4.632,9.147-7.288,15.042-7.288c5.896,0,11.378,2.656,15.042,7.288c1.715,2.166,4.858,2.53,7.023,0.819
	c2.166-1.713,2.533-4.857,0.82-7.023C267.313,345.485,258.973,341.445,250,341.445z M52.151,490h-3.813c-2.761,0-5,2.239-5,5
	s2.239,5,5,5h3.813c2.761,0,5-2.239,5-5S54.912,490,52.151,490z M435.69,495c0,2.761-2.238,5-5,5h-90.144c-2.762,0-5-2.239-5-5
	s2.238-5,5-5h16.213c-4.674-4.298-8.298-9.801-10.378-16.15l-35.906-109.636c-17.437,12.912-38.634,19.971-60.475,19.971
	c-21.841,0-43.039-7.059-60.475-19.971L153.618,473.85c-2.079,6.349-5.704,11.852-10.377,16.15h16.213c2.761,0,5,2.239,5,5
	s-2.239,5-5,5H69.311c-2.761,0-5-2.239-5-5s2.239-5,5-5h22.423c-7.149-6.583-11.74-15.905-12.161-26.428
	c-0.027-0.208-0.041-0.421-0.041-0.636v-87.645c0-0.071,0.018-0.137,0.021-0.207l-0.021-27.624
	c0-29.356,23.879-53.235,53.231-53.235h1.64v-3.416c0-9.019,1.792-17.799,5.328-26.097l15.185-35.637
	c2.901-6.81,9.471-11.254,16.836-11.463c19.406-23.394,47.783-36.764,78.248-36.764c30.464,0,58.842,13.371,78.248,36.764
	c7.365,0.209,13.935,4.654,16.836,11.463l15.185,35.637c3.535,8.296,5.328,17.077,5.328,26.097v3.416h1.64
	c29.353,0,53.232,23.879,53.232,53.231v27.834v87.645c0,0.218-0.014,0.434-0.042,0.646c-0.424,10.519-5.013,19.837-12.161,26.418
	h22.424C433.452,490,435.69,492.239,435.69,495z M365.597,304.226v16.159c0,4.887,0.986,9.639,2.932,14.124l15.523,35.783h26.417
	v-22.834c0-23.838-19.394-43.231-43.232-43.231H365.597z M89.533,347.458l0.017,22.834h26.399l15.523-35.783
	c1.945-4.484,2.932-9.236,2.932-14.124v-16.159h-1.64C108.926,304.226,89.533,323.62,89.533,347.458z M182.253,354.289
	c0.001-0.002,0.001-0.004,0.001-0.006l4.358-13.306c2.822-8.616,4.252-17.583,4.252-26.65V290.81c0-9.02,1.793-17.8,5.329-26.097
	l8.971-21.055c1.546-3.628,1.186-7.597-0.989-10.888s-5.684-5.178-9.628-5.178h-20.401h0h-1.853c-3.568,0-6.777,2.121-8.176,5.403
	l-15.184,35.637c-3.004,7.051-4.528,14.513-4.528,22.177v29.575c0,6.265-1.264,12.355-3.758,18.103l-16.829,38.793
	c0,0-0.001,0.001-0.001,0.001l-15.595,35.949c-0.818,1.885-2.658,3.012-4.589,3.012c-0.664,0-1.339-0.133-1.987-0.415
	c-2.534-1.099-3.696-4.043-2.597-6.577l12.564-28.96H89.533v82.148c0.01,0.108,0.017,0.217,0.019,0.327
	C89.954,478.038,102.246,490,117.537,490c12.124,0,22.805-7.741,26.579-19.263L182.253,354.289z M307.184,354.162l-3.299-10.072
	c-3.151-9.623-4.75-19.636-4.75-29.763V290.81c0-7.665-1.523-15.126-4.527-22.177l-8.971-21.055
	c-2.844-6.673-2.153-14.27,1.846-20.321c3.999-6.052,10.718-9.665,17.972-9.665h9.271c-17.115-17.113-40.169-26.744-64.724-26.744
	s-47.609,9.631-64.724,26.744h9.271c7.253,0,13.972,3.613,17.971,9.664s4.689,13.648,1.847,20.321l-8.971,21.055
	c-3.005,7.051-4.528,14.512-4.528,22.177v23.517c0,10.126-1.598,20.14-4.75,29.763l-3.299,10.073
	c16.195,12.935,36.372,20.023,57.184,20.023C270.812,374.185,290.988,367.097,307.184,354.162z M382.465,490
	c15.29,0,27.582-11.962,27.984-27.233c0.003-0.112,0.01-0.223,0.02-0.333v-82.142h-22.074l12.564,28.96
	c1.099,2.533-0.063,5.478-2.597,6.577c-0.648,0.281-1.323,0.415-1.987,0.415c-1.933,0-3.772-1.126-4.59-3.012l-15.574-35.9
	c-0.008-0.017-0.019-0.032-0.026-0.05l-16.829-38.793c-2.493-5.748-3.758-11.838-3.758-18.103V290.81
	c0-7.665-1.523-15.126-4.527-22.177l-15.185-35.637c-1.398-3.282-4.608-5.403-8.176-5.403h-1.854h-20.401
	c-3.944,0-7.454,1.887-9.629,5.178s-2.535,7.259-0.989,10.888l8.971,21.055c3.535,8.296,5.328,17.077,5.328,26.097v23.517
	c0,9.067,1.431,18.034,4.254,26.65l4.357,13.306l38.14,116.455C359.659,482.259,370.341,490,382.465,490z M451.663,490h-3.813
	c-2.762,0-5,2.239-5,5s2.238,5,5,5h3.813c2.762,0,5-2.239,5-5S454.425,490,451.663,490z M86.244,207.928
	c0-16.353,16.748-31.293,47.236-42.229c-9.59-24.237-9.618-43.098,0.727-53.444c12.695-12.695,37.744-10.049,70.873,7.338
	c2.275-7.267,4.786-14.002,7.53-20.095C222.984,76.465,235.914,64.291,250,64.291s27.016,12.174,37.391,35.206
	c2.744,6.093,5.255,12.829,7.53,20.096c33.13-17.387,58.18-20.032,70.872-7.338c10.346,10.346,10.318,29.208,0.728,53.444
	c30.489,10.936,47.236,25.876,47.236,42.229c0,16.559-17.239,31.718-48.542,42.687c-0.547,0.191-1.104,0.283-1.653,0.283
	c-2.064,0-3.997-1.289-4.719-3.348c-0.913-2.606,0.459-5.459,3.065-6.372c26.596-9.319,41.849-21.438,41.849-33.249
	c0-11.752-14.991-23.738-41.209-33.029c-5.345,11.424-12.584,23.847-21.661,36.995c-0.971,1.406-2.532,2.16-4.12,2.16
	c-0.979,0-1.969-0.287-2.836-0.886c-2.272-1.569-2.843-4.683-1.274-6.955c8.367-12.121,15.149-23.771,20.219-34.464
	c-14.406-4.313-30.785-7.632-48.418-9.859c1.034,6.706,1.925,13.635,2.645,20.785c0.277,2.748-1.727,5.199-4.474,5.476
	c-0.17,0.017-0.34,0.025-0.507,0.025c-2.536,0-4.709-1.922-4.969-4.5c-0.793-7.879-1.805-15.556-3.013-22.952
	c-14.147-1.41-28.972-2.143-44.139-2.143c-15.167,0-29.993,0.733-44.139,2.143c-1.209,7.396-2.22,15.073-3.013,22.952
	c-0.276,2.748-2.728,4.75-5.476,4.474c-2.748-0.277-4.75-2.729-4.474-5.476c0.72-7.15,1.61-14.079,2.645-20.785
	c-17.634,2.228-34.012,5.547-48.418,9.859c5.07,10.693,11.851,22.343,20.218,34.464c1.569,2.272,0.999,5.386-1.274,6.955
	c-0.867,0.599-1.856,0.886-2.836,0.886c-1.588,0-3.149-0.754-4.119-2.16c-9.076-13.148-16.315-25.57-21.661-36.995
	c-26.218,9.291-41.209,21.277-41.209,33.029c0,11.812,15.253,23.93,41.849,33.249c2.606,0.913,3.979,3.766,3.065,6.372
	s-3.766,3.98-6.372,3.065C103.483,239.646,86.244,224.486,86.244,207.928z M297.758,129.406c1.864,6.997,3.523,14.412,4.963,22.202
	c19.803,2.35,38.18,6.034,54.196,10.917c8.081-20.178,9.092-35.915,1.807-43.2C349.439,110.041,326.79,113.836,297.758,129.406z
	 M221.727,103.604c-5.701,12.656-10.48,28.742-14.03,46.901c13.627-1.267,27.822-1.923,42.303-1.923s28.676,0.656,42.303,1.923
	c-3.55-18.16-8.329-34.245-14.03-46.901C269.759,84.701,259.718,74.291,250,74.291C240.283,74.291,230.242,84.701,221.727,103.604z
	 M143.084,162.525c16.015-4.884,34.392-8.567,54.196-10.917c1.44-7.791,3.1-15.205,4.963-22.202
	c-29.031-15.571-51.68-19.367-60.966-10.081C133.993,126.61,135.004,142.348,143.084,162.525z"/>
</svg>
