<?xml version="1.0" encoding="UTF-8" standalone="no"?>
<!-- Created with Inkscape (http://www.inkscape.org/) -->

<svg
   version="1.1"
   id="svg1"
   width="770.46667"
   height="339.61334"
   viewBox="0 0 770.46667 339.61334"
   sodipodi:docname="mind-seeklogo.eps"
   xmlns:inkscape="http://www.inkscape.org/namespaces/inkscape"
   xmlns:sodipodi="http://sodipodi.sourceforge.net/DTD/sodipodi-0.dtd"
   xmlns="http://www.w3.org/2000/svg"
   xmlns:svg="http://www.w3.org/2000/svg">
  <defs
     id="defs1" />
  <sodipodi:namedview
     id="namedview1"
     pagecolor="#ffffff"
     bordercolor="#000000"
     borderopacity="0.25"
     inkscape:showpageshadow="2"
     inkscape:pageopacity="0.0"
     inkscape:pagecheckerboard="0"
     inkscape:deskcolor="#d1d1d1">
    <inkscape:page
       x="0"
       y="0"
       inkscape:label="1"
       id="page1"
       width="770.46667"
       height="339.61334"
       margin="0"
       bleed="0" />
  </sodipodi:namedview>
  <g
     id="g1"
     inkscape:groupmode="layer"
     inkscape:label="1">
    <g
       id="group-R5">
      <path
         id="path2"
         d="m 4901.75,786.391 c -28.7,88.097 153.13,292.149 364.01,292.619 51.64,-165.6 -317.32,-435.17 -364.01,-292.619 M 927.395,1724.35 c -8.118,-2.12 -15.993,-3.88 -23.641,-5.88 -9.992,20.58 -20.231,41.16 -30.695,61.63 23.523,11.29 45.867,21.64 67.156,31.05 -4.469,-28.46 -8.582,-57.63 -12.82,-86.8 m 418.235,-83.62 c 24.81,-29.87 -10,-78.33 -75.28,-133.96 -77.03,15.4 -166.42,10.23 -259.8,-6.47 -1.65,3.29 -2.94,6.35 -4.59,9.41 5.06,41.05 10.58,82.79 16.58,124.67 144.43,27.52 291.57,44.33 323.09,6.35 m 37.63,-349.67 c 4.7,-20.11 4.59,-41.51 0.59,-63.97 -75.39,37.4 -148.31,67.04 -203.47,85.15 41.63,31.87 75.15,53.75 111.73,83.03 46.34,-19.52 79.15,-53.16 91.15,-104.21 m 150.66,-341.779 c -2.35,-42.812 -99.03,-57.742 -234.16,-36.57 50.68,50.93 93.5,103.139 126.07,155.359 64.58,-46.22 109.62,-91.39 108.09,-118.789 M 1175.79,123.41 c -49.28,-11.289 -145.13,223.942 -185.005,553.84 54.105,31.398 106.675,66.332 155.845,103.031 69.5,-358.019 87.85,-643.812 29.16,-656.871 M 308.281,651.961 c -43.75,36.348 -62.922,109.621 -58.804,202.879 137.961,29.64 298.621,101.851 386.125,148.08 12.699,6.59 40.574,20.46 79.148,40.34 14.938,-11.53 29.992,-22.82 45.285,-33.64 33.516,-23.87 69.977,-45.858 108.438,-66.331 0.941,-71.508 4.23,-141.84 10.113,-209.937 C 656.418,615.852 421.074,558.699 308.281,651.961 m -2.937,463.049 c 64.453,34.92 138.429,71.62 212.761,106.9 27.637,-29.4 56.575,-58.21 86.329,-85.63 -28.227,-29.51 -63.395,-56.92 -106.676,-80.9 -74.57,-32.59 -161.25,-67.161 -234.52,-90.571 9.407,47.871 23.524,98.321 42.106,150.201 m 138.074,190.87 c -23.051,-10.93 -46.223,-22.22 -69.508,-34.1 12.235,23.64 25.406,47.4 39.637,70.92 9.766,-12.35 19.758,-24.58 29.871,-36.82 m -176.301,644.99 c 65.633,49.63 224.875,-67.51 327.668,-236.99 -48.219,-39.63 -92.207,-82.56 -132.781,-127.84 -21.875,-8.82 -43.164,-17.65 -63.16,-26.93 -113.848,181.24 -185.477,351.07 -131.727,391.76 m 154.781,432.7 c 16.582,7.99 162.774,-242.4 320.844,-563.48 -10.23,-6.47 -45.515,-29.64 -55.746,-36.46 -230.519,477.97 -283.328,591.35 -265.098,599.94 m 381.887,-689.8 c -19.762,-4.94 -42.812,-11.06 -68.215,-18.11 -2.468,5.88 -5.293,11.64 -8.113,17.41 18.813,13.64 38.223,26.81 58.102,39.16 6.113,-12.82 12.23,-25.64 18.461,-38.34 z m 73.504,-442.57 c -39.398,-22.23 -76.445,-42.82 -108.789,-60.22 21.289,49.75 32.578,101.97 36.227,154.89 26.933,9.53 54.57,18.35 81.855,26.35 -3.523,-40.22 -6.586,-80.8 -9.293,-121.02 m 192.181,113.38 c -6.12,15.05 -12.23,29.87 -18.35,44.45 34.82,5.3 68.46,8.24 99.86,8.59 -25.99,-17.41 -53.4,-35.4 -81.51,-53.04 m 133.61,-403.65 c -23.88,88.32 -50.93,176.42 -80.1,260.39 67.16,-19.75 146.67,-57.04 218.18,-98.56 -32.46,-53.16 -80.1,-108.2 -138.08,-161.83 m -333.787,108.79 c -15.992,9.41 -31.754,19.17 -47.398,29.64 15.761,8.47 32.109,17.4 49.046,26.47 -0.589,-18.71 -1.175,-37.41 -1.648,-56.11 m 108.324,116.44 c 12.231,6.93 24.463,14.23 36.813,21.64 32.69,-85.04 61.75,-167.6 85.38,-244.402 -41.87,14.352 -84.56,31.524 -127.369,51.752 0.352,55.39 2.114,112.55 5.176,171.01 m -319.203,101.26 c 10.703,4.94 21.641,9.53 32.699,14.47 -5.527,-26.46 -14,-52.11 -25.758,-77.04 -14.933,14.47 -29.871,29.64 -44.574,45.17 12.817,5.87 25.403,11.64 37.633,17.4 m 39.637,127.02 c -34.93,-13.17 -88.446,-34.34 -150.547,-61.28 -23.754,28.58 -46.805,58.11 -68.68,88.22 15.754,21.64 31.989,42.92 49.278,63.63 39.988,15.52 87.152,31.4 142.191,46.8 14.82,-45.28 24.578,-91.38 27.758,-137.37 M 976.676,835.898 c -1.18,18.942 -2.004,38.231 -2.59,57.872 33.284,-13.872 67.514,-26.11 101.734,-37.051 -31.05,-22.688 -63.15,-44.207 -96.207,-64.797 -1.058,14.457 -1.996,29.289 -2.937,43.976 m -78.684,652.642 c -0.472,-4.36 -0.824,-8.82 -1.41,-13.06 -31.641,-8.23 -63.512,-17.05 -94.797,-26.58 -5.055,43.4 -14.699,87.03 -28.109,129.61 20.933,5.29 46.691,11.65 75.39,18.35 16.465,-35.87 32.813,-72.1 48.926,-108.32 M 147.98,937.988 c -25.523,-1.758 -42.105,2.364 -45.519,14.942 -5.0587,18.82 19.996,45.871 63.984,77.74 -7.761,-31.631 -13.882,-62.69 -18.465,-92.682 M 5773.61,752.051 c -55.04,108.429 -210.41,-153.719 -356.12,203.59 -56.34,137.959 -44.23,481.859 -27.07,640.399 13.54,127.84 -105.73,127.37 -122.43,10.35 -12.34,-87.16 -24.69,-252.63 -11.05,-422.59 -422.58,-23.76 -475.63,-423.171 -620.64,-425.628 -119.14,-1.891 -131.61,431.858 -335.31,426.688 -121.26,-3.18 -221.7,-135.49 -267.1,-231.34 5.65,49.4 11.06,99.74 4.58,157.48 -5.41,49.28 -21.99,67.63 -55.86,67.86 -50.11,0.35 -97.38,-101.26 -106.08,-118.07 -48.11,-91.739 -112.09,-290.86 -254.16,-297.919 -152.2,-7.652 -168.2,308.489 -180.54,371.069 -8.94,45.75 -32.11,60.33 -62.93,59.75 -40.1,-0.95 -63.27,-43.28 -79.5,-99.62 -21.17,-74.81 -105.73,-348.371 -248.4,-343.078 -209.23,7.528 -115.61,694.498 -395.29,684.268 -103.38,-3.77 -169.36,-114.44 -191.59,-194.3 -31.99,182.89 -147.49,192.54 -180.42,192.65 -88.91,0.59 -153.84,-76.8 -200.88,-207.58 14.82,115.85 -69.74,765.3 -700.03,779.53 -97.15,2 -198.88,-8.7 -304.03,-36.81 21.64,110.43 45.52,221.23 72.1,331.31 27.05,112.32 27.17,149.02 -4.12,163.01 -57.04,25.64 -90.09,-30.34 -109.73,-123.14 -20.23,-94.79 -49.397,-239.34 -77.862,-410.46 -43.281,-16.82 -87.031,-36.58 -130.902,-59.87 -125.375,248.05 -253.566,485.5 -344.723,603.47 -45.75,59.16 -88.558,90.8 -138.543,64.92 -100.328,-52.1 34.34,-370.12 138.782,-548.54 -101.969,78.33 -208.762,108.79 -286.149,58.57 -114.4411,-74.57 -49.168,-304.03 101.379,-544.07 -42.691,-29.64 -67.508,-60.69 -61.863,-91.39 6.469,-35.4 34.691,-50.22 61.863,-53.99 C 265.824,1300.36 238.07,1241.2 214.898,1182.63 80.2344,1097.94 -20.7969,1003.27 3.66797,918.711 19.6641,863.191 70.9414,841.91 138.922,841.672 134.922,728.77 158.563,637.73 209.371,588.922 353.684,450.141 630.426,495.422 890.23,623.031 935.746,260.309 1048.18,-11.7188 1186.03,0.390625 1347.62,14.8594 1334.45,400.27 1239.07,816.031 c 215.82,-38.222 400.94,-6.23 408.23,127.731 4.82,87.388 -71.86,167.008 -170.3,230.638 24.34,72.79 22.58,142.3 -13.06,202.52 -23.29,39.52 -53.51,69.16 -89.27,90.8 74.57,73.27 117.62,144.43 99.97,204.29 -35.87,121.73 -249.45,109.26 -434.92,75.51 5.76,36.34 11.99,73.16 18.58,109.73 136.54,45.87 228.52,46.58 328.84,41.29 636.17,-33.88 603.82,-707.56 604.3,-1156.849 0,-125.371 95.26,-140.781 107.73,6.481 7.99,95.969 64.45,580.058 185.12,565.008 123.14,-15.29 106.2,-519.258 103.85,-593.481 -2.59,-97.027 101.62,-109.019 104.91,2.473 1.3,46.109 28.82,575.008 165.13,582.888 135.72,7.76 64.45,-666.978 379.18,-667.33 203.47,-0.23 296.85,201.469 315.44,274.981 37.87,-189.242 149.25,-270.039 260.27,-274.16 144.43,-5.289 266.75,158.551 302.15,247.109 1.88,-76.461 -6.47,-243.34 63.74,-248.16 52.93,-3.531 87.74,112.91 135.85,214.398 47.98,101.274 111.61,205.232 171.71,204.412 115.85,-1.18 113.96,-436.81 349.55,-413.759 82.32,8.121 143.01,65.508 165.6,90.211 60.91,-194.774 417.05,-45.282 519.14,140.308 49.16,-125.488 129.49,-218.988 258.15,-231.699 119.14,-12.109 223.7,53.277 194.65,110.68"
         style="fill:#274793;fill-opacity:1;fill-rule:nonzero;stroke:none"
         transform="matrix(0.13333333,0,0,-0.13333333,0,339.61333)" />
      <path
         id="path3"
         d="m 3435.47,1415.97 c 39.99,-1.17 71.05,24.93 72.22,59.16 1.06,34.23 -27.75,66.34 -67.74,67.51 -39.99,1.06 -71.16,-31.87 -72.34,-66.22 -0.7,-33.99 28.12,-59.27 67.86,-60.45"
         style="fill:#274793;fill-opacity:1;fill-rule:nonzero;stroke:none"
         transform="matrix(0.13333333,0,0,-0.13333333,0,339.61333)" />
      <path
         id="path4"
         d="m 2110.1,331.941 c 0,-8.589 -3.64,-13.41 -11.29,-14.351 h -24.34 c -20,0 -29.88,-12.121 -29.88,-36.231 0,-2.468 0.12,-6.23 0.36,-11.05 0.23,-4.707 0.47,-8.348 0.47,-10.938 h 35.28 c 6.82,-0.699 10.23,-5.41 10.23,-13.762 0,-7.757 -3.41,-11.519 -10.23,-11.519 h -35.28 l 0.35,-135.6095 c 0,-7.8789 -5.06,-11.8789 -15.41,-11.8789 -10.23,0 -15.29,4 -15.29,11.8789 V 234.09 h -14.82 c -5.52,0 -8.23,3.64 -8.23,10.93 0,9.531 2.71,14.351 8.23,14.351 h 14.82 v 10.348 10.242 c 0,18.93 2.94,33.508 8.7,43.508 8.48,14.703 23.41,21.883 44.82,21.883 h 30.34 c 7.53,-0.942 11.17,-5.532 11.17,-13.411"
         style="fill:#274793;fill-opacity:1;fill-rule:nonzero;stroke:none"
         transform="matrix(0.13333333,0,0,-0.13333333,0,339.61333)" />
      <path
         id="path5"
         d="m 2275.47,185.859 c 0,-41.988 -13.53,-70.328 -40.69,-85.269 -13.18,-7.3986 -27.65,-11.0509 -43.29,-11.0509 -27.87,0 -49.16,8.9414 -63.75,26.7029 -13.76,16.34 -20.46,38.567 -20.46,67.039 0,33.278 9.29,57.86 27.76,73.848 15.4,13.18 34.11,19.891 56.45,19.891 27.05,0 48.1,-8.598 62.92,-25.649 14,-16.351 21.06,-38.101 21.06,-65.512 m -31.4,-1.648 c 0,18.711 -4.01,34.121 -11.88,46.109 -9.29,14.239 -22.94,21.399 -40.7,21.399 -18.35,0 -32.11,-7.278 -41.28,-21.75 -7.76,-12 -11.65,-27.52 -11.65,-46.809 0,-19.289 3.89,-34.93 11.65,-46.918 9.17,-14.48 22.93,-21.64 41.28,-21.64 18.23,0 31.99,7.398 41.17,22.097 7.76,12.11 11.41,27.992 11.41,47.512"
         style="fill:#274793;fill-opacity:1;fill-rule:nonzero;stroke:none"
         transform="matrix(0.13333333,0,0,-0.13333333,0,339.61333)" />
      <path
         id="path6"
         d="m 2427.3,260.551 c 0,-4.242 -1.64,-8.121 -5.17,-11.77 -3.29,-3.64 -7.29,-5.41 -11.52,-5.41 -1.65,0 -3.07,0.469 -4.12,1.539 -3.06,4.942 -9.29,7.399 -18.47,7.399 -16.35,0 -28.93,-7.52 -37.87,-22.457 -6.7,-11.411 -10.12,-26.231 -10.12,-44.692 0,-0.949 0,-2.469 0.13,-4.59 0.11,-1.879 0.11,-3.41 0.11,-4.59 V 96.832 c -0.47,-5.2929 -6,-7.8828 -16.34,-7.8828 -9.3,0 -14,2.5899 -14,7.8828 v 160.887 5.41 1.531 c 0,5.77 5.64,8.82 16.94,8.82 9.87,0 14.7,-3.171 14.7,-9.171 v -11.168 c 12.93,16.109 29.28,24.23 49.27,24.23 16.24,0 26.47,-2 30.94,-5.762 3.64,-3.3 5.52,-6.949 5.52,-11.058"
         style="fill:#274793;fill-opacity:1;fill-rule:nonzero;stroke:none"
         transform="matrix(0.13333333,0,0,-0.13333333,0,339.61333)" />
      <path
         id="path7"
         d="m 2722.04,185.859 c 0,-26.23 -6.11,-48.218 -18.58,-65.968 -14.23,-20.2426 -33.88,-30.3519 -58.92,-30.3519 -21.29,0 -37.87,8.8203 -49.87,26.4609 V 96.832 c -0.83,-4.8203 -5.53,-7.2929 -14.59,-7.2929 -9.05,0 -13.64,2.4726 -13.64,7.2929 v 235.93 c 0,6 5.18,9.179 15.64,9.179 9.88,0 14.7,-3.179 14.7,-9.179 V 276.66 h 39.64 9.64 c 24.94,0 44.23,-9.168 57.64,-27.64 12.23,-16.469 18.34,-37.399 18.34,-63.161 m -31.28,-2.468 c 0,16.23 -2.71,30.109 -8,41.629 -6.82,15.062 -17.29,23.761 -31.29,26.351 h -5.88 -48.81 l 0.83,-66.691 c 0.23,-25.629 2.12,-41.16 5.41,-46.571 9.52,-15.64 22.58,-23.507 38.81,-23.507 16.7,0 29.52,7.628 38.34,23.16 7.06,12.468 10.59,27.75 10.59,45.629"
         style="fill:#274793;fill-opacity:1;fill-rule:nonzero;stroke:none"
         transform="matrix(0.13333333,0,0,-0.13333333,0,339.61333)" />
      <path
         id="path8"
         d="m 2911.64,186.102 c 0,-0.59 -0.12,-1.422 -0.24,-2.59 -0.23,-1.051 -0.23,-1.883 -0.23,-2.473 l -130.2,-7.758 c 1.05,-17.051 5.88,-30.812 14.58,-41.281 9.52,-11.531 22.7,-17.398 39.16,-17.398 22.35,0 37.29,10.57 44.82,31.507 2.82,5.063 8.11,7.532 16.11,7.532 10.47,0 15.64,-3.059 15.64,-9.172 0,-0.828 -0.11,-1.539 -0.36,-2.36 -4.69,-17.289 -14.23,-30.578 -28.34,-39.75 -13.17,-8.5895 -29.17,-12.7106 -47.99,-12.7106 -27.63,0 -48.92,8.4727 -64.09,25.7736 -14.35,16.226 -21.41,38.34 -21.41,66.32 0,28 6.82,50.348 20.58,67.399 14.94,18.578 35.99,27.879 63.28,27.879 23.88,0 43.51,-8.239 58.69,-24.59 7.17,-7.641 12.23,-16.231 15.05,-25.871 2.01,-6.469 3.65,-19.879 4.95,-40.457 m -30.94,20.218 c -1.06,12.121 -4.35,21.532 -9.76,28 -9.76,11.879 -22.23,17.641 -37.64,17.641 -14.94,0 -27.05,-4.941 -36.22,-14.82 -8.82,-9.411 -13.76,-21.641 -14.94,-36.7 l 98.56,5.879"
         style="fill:#274793;fill-opacity:1;fill-rule:nonzero;stroke:none"
         transform="matrix(0.13333333,0,0,-0.13333333,0,339.61333)" />
      <path
         id="path9"
         d="m 3024.18,255.141 c 0,-8.36 -2.58,-12.59 -7.88,-12.59 h -28.92 V 100.469 c 0,-6.8088 -4.83,-9.9885 -14.59,-9.9885 -10.47,0 -15.65,3.1797 -15.65,9.9885 v 142.082 h -12.22 c -4.94,0 -7.42,4 -7.42,11.879 0,8.941 2.48,13.41 7.42,13.41 h 12.22 v 49.519 c 0,6.7 4.94,10.11 14.83,10.223 10.35,0 15.41,-2.941 15.41,-8.812 v -50.93 h 28.92 c 5.3,0 7.88,-4.231 7.88,-12.699"
         style="fill:#274793;fill-opacity:1;fill-rule:nonzero;stroke:none"
         transform="matrix(0.13333333,0,0,-0.13333333,0,339.61333)" />
      <path
         id="path10"
         d="m 3120.4,255.141 c 0,-8.36 -2.71,-12.59 -8,-12.59 h -28.94 V 100.469 c 0,-6.8088 -4.82,-9.9885 -14.58,-9.9885 -10.47,0 -15.64,3.1797 -15.64,9.9885 v 142.082 h -12.11 c -4.94,0 -7.53,4 -7.53,11.879 0,8.941 2.59,13.41 7.53,13.41 h 12.11 v 49.519 c 0,6.7 4.94,10.11 14.82,10.223 10.34,0 15.4,-2.941 15.4,-8.812 v -50.93 h 28.94 c 5.29,0 8,-4.231 8,-12.699"
         style="fill:#274793;fill-opacity:1;fill-rule:nonzero;stroke:none"
         transform="matrix(0.13333333,0,0,-0.13333333,0,339.61333)" />
      <path
         id="path11"
         d="m 3296.46,186.102 c 0,-0.59 -0.12,-1.422 -0.23,-2.59 -0.24,-1.051 -0.24,-1.883 -0.24,-2.473 l -130.19,-7.758 c 1.05,-17.051 5.87,-30.812 14.58,-41.281 9.64,-11.531 22.57,-17.398 39.28,-17.398 22.23,0 37.16,10.57 44.57,31.507 2.94,5.063 8.24,7.532 16.23,7.532 10.47,0 15.65,-3.059 15.65,-9.172 0,-0.828 -0.12,-1.539 -0.35,-2.36 -4.71,-17.289 -14.24,-30.578 -28.35,-39.75 -13.29,-8.5895 -29.29,-12.7106 -47.98,-12.7106 -27.65,0 -48.94,8.4727 -64.1,25.7736 -14.36,16.226 -21.53,38.34 -21.53,66.32 0,28 6.94,50.348 20.71,67.399 14.93,18.578 35.98,27.879 63.15,27.879 24,0 43.63,-8.239 58.81,-24.59 7.05,-7.641 12.11,-16.231 15.05,-25.871 1.88,-6.469 3.65,-19.879 4.94,-40.457 m -30.93,20.218 c -1.18,12.121 -4.35,21.532 -9.76,28 -9.77,11.879 -22.35,17.641 -37.76,17.641 -14.94,0 -26.93,-4.941 -36.1,-14.82 -8.95,-9.411 -13.89,-21.641 -14.94,-36.7 l 98.56,5.879"
         style="fill:#274793;fill-opacity:1;fill-rule:nonzero;stroke:none"
         transform="matrix(0.13333333,0,0,-0.13333333,0,339.61333)" />
      <path
         id="path12"
         d="m 3452.77,260.551 c 0,-4.242 -1.65,-8.121 -5.18,-11.77 -3.41,-3.64 -7.29,-5.41 -11.52,-5.41 -1.77,0 -3.07,0.469 -4.12,1.539 -3.18,4.942 -9.29,7.399 -18.47,7.399 -16.35,0 -29.04,-7.52 -37.99,-22.457 -6.7,-11.411 -10.1,-26.231 -10.1,-44.692 0,-0.949 0,-2.469 0.11,-4.59 0.12,-1.879 0.12,-3.41 0.12,-4.59 V 96.832 c -0.48,-5.2929 -6.01,-7.8828 -16.35,-7.8828 -9.29,0 -14,2.5899 -14,7.8828 v 160.887 5.41 1.531 c 0,5.77 5.76,8.82 17.06,8.82 9.87,0 14.81,-3.171 14.81,-9.171 v -11.168 c 12.71,16.109 29.17,24.23 49.16,24.23 16.23,0 26.47,-2 30.94,-5.762 3.53,-3.3 5.53,-6.949 5.53,-11.058"
         style="fill:#274793;fill-opacity:1;fill-rule:nonzero;stroke:none"
         transform="matrix(0.13333333,0,0,-0.13333333,0,339.61333)" />
      <path
         id="path13"
         d="m 3836.66,180.34 v 0.109 -80.211 c 0,-6.3474 -4.95,-9.6364 -14.95,-9.6364 -10.35,0 -15.51,3.289 -15.51,9.6364 v 83.043 c 0,27.399 -6.48,45.981 -19.65,56.098 -4.82,3.531 -10.94,5.41 -18.47,5.41 -12.81,0 -23.16,-7.527 -31.28,-22.469 -3.52,-6.582 -5.76,-16.699 -6.23,-30.34 v -1.058 -1.762 -93.0311 c -0.59,-5.2891 -6,-8 -16.35,-8 -9.29,0 -14,2.7109 -14.12,7.8828 -0.23,0.8203 -0.35,1.7578 -0.35,2.7071 v 83.5002 4.461 4.59 c -0.23,13.878 -3.64,26.242 -10.12,37.289 -7.16,13.05 -17.05,20.691 -29.52,22.929 h -5.88 -37.63 V 95.5313 c -0.59,-4.8125 -5.53,-7.4024 -14.47,-7.4024 -9.05,0 -13.64,2.5899 -13.64,7.4024 V 267.02 c 0,5.878 5.18,8.929 15.65,9.171 l 40.69,0.59 c 1.41,0.348 4.71,0.59 9.64,0.59 26.7,0 46.93,-10.82 60.69,-32.351 5.18,7.652 11.64,14.121 19.41,19.062 11.64,7.289 22.81,11.047 33.16,11.047 21.99,0 39.4,-9.879 52.46,-29.52 10.94,-16.929 16.47,-38.57 16.47,-65.269"
         style="fill:#274793;fill-opacity:1;fill-rule:nonzero;stroke:none"
         transform="matrix(0.13333333,0,0,-0.13333333,0,339.61333)" />
      <path
         id="path14"
         d="m 4026.01,186.102 c 0,-0.59 -0.12,-1.422 -0.23,-2.59 -0.24,-1.051 -0.24,-1.883 -0.24,-2.473 l -130.19,-7.758 c 1.05,-17.051 5.88,-30.812 14.58,-41.281 9.52,-11.531 22.57,-17.398 39.04,-17.398 22.47,0 37.4,10.57 44.81,31.507 2.94,5.063 8.24,7.532 16.12,7.532 10.58,0 15.76,-3.059 15.76,-9.172 0,-0.828 -0.12,-1.539 -0.35,-2.36 -4.71,-17.289 -14.24,-30.578 -28.35,-39.75 -13.29,-8.5895 -29.29,-12.7106 -48.11,-12.7106 -27.52,0 -48.81,8.4727 -63.97,25.7736 -14.24,16.226 -21.53,38.34 -21.53,66.32 0,28 6.94,50.348 20.58,67.399 14.94,18.578 36.11,27.879 63.28,27.879 24,0 43.63,-8.239 58.8,-24.59 7.06,-7.641 12.12,-16.231 15.06,-25.871 1.88,-6.469 3.52,-19.879 4.94,-40.457 m -31.05,20.218 c -1.06,12.121 -4.23,21.532 -9.64,28 -9.77,11.879 -22.35,17.641 -37.76,17.641 -14.94,0 -26.93,-4.941 -36.1,-14.82 -8.95,-9.411 -13.89,-21.641 -14.94,-36.7 l 98.44,5.879"
         style="fill:#274793;fill-opacity:1;fill-rule:nonzero;stroke:none"
         transform="matrix(0.13333333,0,0,-0.13333333,0,339.61333)" />
      <path
         id="path15"
         d="m 4217.95,96.1289 c -0.58,-5.2891 -5.99,-7.8789 -16.34,-7.8789 -9.42,0 -14.11,2.5898 -14.11,7.8789 V 185.98 c 0,14.93 -3.07,28.461 -9.07,40.461 -7.17,14.348 -17.63,22.7 -30.81,24.93 h -5.88 -51.28 V 95.4219 c -0.71,-4.8203 -5.52,-7.1719 -14.47,-7.1719 -9.05,0 -13.64,2.3516 -13.64,7.1719 V 267.129 c 0,5.883 5.17,8.82 15.64,8.941 l 54.34,0.711 c 1.42,0.469 4.59,0.59 9.65,0.59 24.93,0 44.1,-9.301 57.74,-27.769 12.24,-16.461 18.23,-37.5 18.23,-63.5 V 96.1289"
         style="fill:#274793;fill-opacity:1;fill-rule:nonzero;stroke:none"
         transform="matrix(0.13333333,0,0,-0.13333333,0,339.61333)" />
      <path
         id="path16"
         d="m 4330.98,255.141 c 0,-8.36 -2.59,-12.59 -7.88,-12.59 h -28.93 V 100.469 c 0,-6.8088 -4.83,-9.9885 -14.59,-9.9885 -10.46,0 -15.64,3.1797 -15.64,9.9885 v 142.082 h -12.24 c -4.93,0 -7.4,4 -7.4,11.879 0,8.941 2.47,13.41 7.4,13.41 h 12.24 v 49.519 c 0,6.7 4.94,10.11 14.81,10.223 10.24,0 15.42,-2.941 15.42,-8.812 v -50.93 h 28.93 c 5.29,0 7.88,-4.231 7.88,-12.699"
         style="fill:#274793;fill-opacity:1;fill-rule:nonzero;stroke:none"
         transform="matrix(0.13333333,0,0,-0.13333333,0,339.61333)" />
      <path
         id="path17"
         d="m 4506.58,95.3008 c 0,-4.8203 -4.59,-7.1719 -13.77,-7.1719 -8.94,0 -13.88,2.3516 -14.47,7.1719 v 20.8202 c -12.1,-17.6405 -28.69,-26.5819 -49.86,-26.5819 -25.17,0 -44.81,10.2304 -58.92,30.4729 -12.48,17.867 -18.59,39.859 -18.59,66.09 0,25.878 6,47.039 18.23,63.5 13.41,18.468 32.7,27.648 57.75,27.648 4.94,0 8.23,-0.121 9.65,-0.352 l 54.22,-0.828 c 10.46,0 15.76,-3.058 15.76,-9.05 z m -30.82,155.9612 h -54.46 c -13.99,-2.364 -24.34,-11.18 -31.16,-26.121 -5.29,-11.52 -8,-25.52 -8,-41.629 0,-18.114 3.65,-33.282 10.71,-45.75 8.7,-15.41 21.52,-23.16 38.22,-23.16 16.35,0 29.28,7.867 38.93,23.507 3.29,5.532 5.05,21.063 5.29,46.571 l 0.47,66.582"
         style="fill:#274793;fill-opacity:1;fill-rule:nonzero;stroke:none"
         transform="matrix(0.13333333,0,0,-0.13333333,0,339.61333)" />
      <path
         id="path18"
         d="m 4576.79,101.891 c 0,-7.6488 -4.82,-11.4105 -14.47,-11.4105 -10.59,0 -16,3.7617 -16,11.4105 v 207.23 c 0,6.117 2.71,12.578 7.88,19.758 5.41,7.652 11.06,11.531 16.95,11.531 3.76,0 5.64,-3.18 5.64,-9.289 v -229.23"
         style="fill:#274793;fill-opacity:1;fill-rule:nonzero;stroke:none"
         transform="matrix(0.13333333,0,0,-0.13333333,0,339.61333)" />
      <path
         id="path19"
         d="m 4895.16,97.5313 c -0.58,-5.2891 -5.99,-7.9922 -16.35,-7.9922 -9.4,0 -14.11,2.7031 -14.11,7.9922 V 185.75 c 0,14.93 -2.94,28.449 -9.05,40.461 -7.18,14.34 -17.53,22.687 -30.82,25.051 h -5.88 -48.69 V 97.0703 c -0.82,-4.9492 -6.47,-7.5312 -17.05,-7.5312 -9.05,0 -13.64,2.4726 -13.64,7.2929 v 235.93 c 0,6.109 5.29,9.179 15.87,9.179 9.88,0 14.82,-3.07 14.82,-9.179 v -55.981 h 39.4 9.52 c 25.05,0 44.35,-9.289 57.88,-27.883 12.11,-16.347 18.1,-37.398 18.1,-63.269 V 97.5313"
         style="fill:#274793;fill-opacity:1;fill-rule:nonzero;stroke:none"
         transform="matrix(0.13333333,0,0,-0.13333333,0,339.61333)" />
      <path
         id="path20"
         d="m 5084.88,186.102 c 0,-0.59 -0.13,-1.422 -0.25,-2.59 -0.23,-1.051 -0.23,-1.883 -0.23,-2.473 l -130.2,-7.758 c 1.07,-17.051 5.88,-30.812 14.59,-41.281 9.53,-11.531 22.58,-17.398 39.05,-17.398 22.46,0 37.4,10.57 44.81,31.507 2.94,5.063 8.23,7.532 16.11,7.532 10.58,0 15.76,-3.059 15.76,-9.172 0,-0.828 -0.12,-1.539 -0.35,-2.36 -4.7,-17.289 -14.23,-30.578 -28.34,-39.75 -13.3,-8.5895 -29.29,-12.7106 -48.11,-12.7106 -27.52,0 -48.81,8.4727 -63.98,25.7736 -14.23,16.226 -21.53,38.34 -21.53,66.32 0,28 6.95,50.348 20.59,67.399 14.93,18.578 36.1,27.879 63.27,27.879 23.99,0 43.63,-8.239 58.81,-24.59 7.06,-7.641 12.12,-16.231 15.06,-25.871 1.87,-6.469 3.52,-19.879 4.94,-40.457 m -30.94,20.218 c -1.17,12.121 -4.36,21.532 -9.77,28 -9.75,11.879 -22.34,17.641 -37.75,17.641 -14.93,0 -26.93,-4.941 -36.22,-14.82 -8.82,-9.411 -13.76,-21.641 -14.81,-36.7 l 98.55,5.879"
         style="fill:#274793;fill-opacity:1;fill-rule:nonzero;stroke:none"
         transform="matrix(0.13333333,0,0,-0.13333333,0,339.61333)" />
      <path
         id="path21"
         d="m 5276.81,95.3008 c 0,-4.8203 -4.58,-7.1719 -13.76,-7.1719 -8.93,0 -13.88,2.3516 -14.46,7.1719 v 20.8202 c -11.99,-17.6405 -28.58,-26.5819 -49.86,-26.5819 -25.18,0 -44.82,10.2304 -58.93,30.4729 -12.47,17.867 -18.58,39.859 -18.58,66.09 0,25.878 5.99,47.039 18.11,63.5 13.64,18.468 32.93,27.648 57.86,27.648 4.94,0 8.23,-0.121 9.65,-0.352 l 54.34,-0.828 c 10.47,0 15.63,-3.058 15.63,-9.05 z m -30.69,155.9612 h -54.57 c -13.88,-2.364 -24.35,-11.18 -31.17,-26.121 -5.29,-11.52 -8,-25.52 -8,-41.629 0,-18.114 3.65,-33.282 10.7,-45.75 8.83,-15.41 21.41,-23.16 38.23,-23.16 16.35,0 29.28,7.867 38.93,23.507 3.29,5.532 5.18,21.063 5.41,46.571 l 0.47,66.582"
         style="fill:#274793;fill-opacity:1;fill-rule:nonzero;stroke:none"
         transform="matrix(0.13333333,0,0,-0.13333333,0,339.61333)" />
      <path
         id="path22"
         d="m 5347.14,101.891 c 0,-7.6488 -4.81,-11.4105 -14.58,-11.4105 -10.58,0 -15.88,3.7617 -15.88,11.4105 v 207.23 c 0,6.117 2.59,12.578 7.77,19.758 5.41,7.652 11.05,11.531 16.81,11.531 3.89,0 5.88,-3.18 5.88,-9.289 v -229.23"
         style="fill:#274793;fill-opacity:1;fill-rule:nonzero;stroke:none"
         transform="matrix(0.13333333,0,0,-0.13333333,0,339.61333)" />
      <path
         id="path23"
         d="m 5466.76,255.141 c 0,-8.36 -2.7,-12.59 -8,-12.59 h -28.81 V 100.469 c 0,-6.8088 -4.83,-9.9885 -14.58,-9.9885 -10.47,0 -15.65,3.1797 -15.65,9.9885 v 142.082 h -12.23 c -4.94,0 -7.41,4 -7.41,11.879 0,8.941 2.47,13.41 7.41,13.41 h 12.23 v 49.519 c 0,6.7 4.83,10.11 14.7,10.223 10.23,0 15.53,-2.941 15.53,-8.812 v -50.93 h 28.81 c 5.3,0 8,-4.231 8,-12.699"
         style="fill:#274793;fill-opacity:1;fill-rule:nonzero;stroke:none"
         transform="matrix(0.13333333,0,0,-0.13333333,0,339.61333)" />
      <path
         id="path24"
         d="m 5645.77,97.5313 c -0.71,-5.2891 -6.12,-7.9922 -16.47,-7.9922 -9.41,0 -14.11,2.7031 -14.11,7.9922 V 185.75 c 0,14.93 -2.94,28.449 -8.94,40.461 -7.29,14.34 -17.64,22.687 -30.82,25.051 h -5.99 -48.69 V 97.0703 c -0.83,-4.9492 -6.48,-7.5312 -17.06,-7.5312 -9.06,0 -13.53,2.4726 -13.53,7.2929 v 235.93 c 0,6.109 5.18,9.179 15.76,9.179 9.89,0 14.83,-3.07 14.83,-9.179 v -55.981 h 39.39 9.53 c 25.05,0 44.34,-9.289 57.86,-27.883 12.12,-16.347 18.24,-37.398 18.24,-63.269 V 97.5313"
         style="fill:#274793;fill-opacity:1;fill-rule:nonzero;stroke:none"
         transform="matrix(0.13333333,0,0,-0.13333333,0,339.61333)" />
    </g>
  </g>
</svg>
