<?xml version="1.0" encoding="utf-8"?>
<!-- Generator: Adobe Illustrator 23.0.0, SVG Export Plug-In . SVG Version: 6.00 Build 0)  -->
<svg version="1.1" id="Layer_1" xmlns="http://www.w3.org/2000/svg" xmlns:xlink="http://www.w3.org/1999/xlink" x="0px" y="0px"
	 viewBox="0 0 500 500" style="enable-background:new 0 0 500 500;" xml:space="preserve">
<style type="text/css">
	.st0{fill:#83E1E5;}
	.st1{fill:#AAB1BA;}
	.st2{fill:#FDDF7F;}
	.st3{fill:#ECF4F7;}
	.st4{fill:#1C1D21;}
</style>
<g>
	<g>
		<path class="st1" d="M250,25.908c-97.555,0-176.638,79.084-176.638,176.638c0,38.883,12.574,74.825,33.863,104.001
			c7.407-4.634,16.157-7.322,25.539-7.322h6.64v-8.416c0-8.295,1.676-16.505,4.928-24.137l15.185-35.637
			c2.182-5.12,7.21-8.443,12.776-8.443l1.853,0c17.705-22.381,45.102-36.744,75.855-36.744s58.15,14.363,75.855,36.744l1.853,0
			c5.566,0,10.594,3.323,12.776,8.443l15.185,35.637c3.252,7.632,4.928,15.842,4.928,24.137v8.416h6.64
			c9.382,0,18.131,2.688,25.539,7.322c21.289-29.177,33.863-65.118,33.863-104.001C426.638,104.992,347.555,25.908,250,25.908z"/>
	</g>
</g>
<g>
	<g>
		<path class="st2" d="M279.529,76.163L250,5l-29.529,71.163L190.942,64.01l22.979,43.86h13.677c6.359,0,12.094,2.654,16.172,6.909
			h12.459c4.077-4.255,9.813-6.909,16.172-6.909h13.678l22.979-43.86L279.529,76.163z"/>
	</g>
</g>
<g>
	<g>
		<path class="st3" d="M399.141,107.869h-93.56h-8.86h-24.319c-12.372,0-22.402,10.03-22.402,22.402
			c0-12.372-10.03-22.402-22.402-22.402h-24.319h-8.86h-93.56c-9.129,14.35-16.243,30.106-20.946,46.871h86.467
			c0-10.189,8.26-18.449,18.449-18.449c10.189,0,18.45,8.26,18.45,18.449H250h46.721c0-10.189,8.26-18.449,18.45-18.449
			c10.189,0,18.449,8.26,18.449,18.449h86.467C415.384,137.975,408.27,122.22,399.141,107.869z"/>
	</g>
</g>
<g>
	<g>
		<path class="st0" d="M163.598,83.84c-6.381-4.975-14.241-7.677-22.333-7.677h-14.65c-9.751,9.521-18.408,20.155-25.756,31.707
			h93.56L163.598,83.84z"/>
	</g>
</g>
<g>
	<g>
		<path class="st0" d="M373.384,76.163h-14.65c-8.092,0-15.951,2.702-22.333,7.677l-30.821,24.03h93.554
			C391.787,96.321,383.134,85.683,373.384,76.163z"/>
	</g>
</g>
<g>
	<g>
		<path class="st0" d="M351.134,472.293l-38.14-116.454c-16.919,14.549-38.929,23.346-62.994,23.346s-46.074-8.797-62.994-23.346
			l-38.14,116.454C144.43,485.839,131.79,495,117.536,495h264.928C368.21,495,355.57,485.839,351.134,472.293z"/>
	</g>
</g>
<g>
	<g>
		<path class="st2" d="M380.77,375.292l-16.829-38.793c-2.206-5.085-3.345-10.57-3.345-16.113V290.81
			c0-8.295-1.676-16.505-4.928-24.137l-15.185-35.637c-2.182-5.12-7.21-8.443-12.776-8.443l-1.853,0
			c-17.705-22.381-45.102-36.744-75.855-36.744s-58.15,14.363-75.855,36.744l-1.853,0c-5.566,0-10.594,3.323-12.776,8.443
			l-15.185,35.637c-3.252,7.632-4.928,15.842-4.928,24.137v29.575c0,5.543-1.138,11.028-3.345,16.113l-16.829,38.793H84.532v87.644
			l0.021-0.038C85.002,479.93,98.856,495,117.536,495h0c14.254,0,26.894-9.161,31.33-22.707l38.14-116.454
			c16.919,14.549,38.929,23.346,62.994,23.346s46.074-8.796,62.994-23.346l38.14,116.454C355.57,485.839,368.21,495,382.464,495h0
			c18.68,0,32.534-15.07,32.983-32.102l0.021,0.038v-87.644H380.77z"/>
	</g>
</g>
<g>
	<g>
		<path class="st0" d="M139.404,299.226h-6.64c-26.637,0-48.231,21.594-48.231,48.232v27.834h34.698l16.829-38.793
			c0.552-1.271,1.036-2.568,1.453-3.884s0.766-2.651,1.046-4.001c0.56-2.7,0.845-5.457,0.845-8.228L139.404,299.226L139.404,299.226
			z"/>
	</g>
</g>
<g>
	<g>
		<path class="st0" d="M367.236,299.226h-6.64h0v21.159c0,2.772,0.285,5.529,0.845,8.228c0.28,1.35,0.629,2.685,1.046,4.001
			s0.902,2.612,1.453,3.884l16.829,38.793h34.698v-27.834C415.468,320.82,393.874,299.226,367.236,299.226z"/>
	</g>
</g>
<g>
	<g>
		<circle class="st0" cx="184.83" cy="154.741" r="18.449"/>
	</g>
</g>
<g>
	<g>
		<circle class="st0" cx="315.17" cy="154.741" r="18.449"/>
	</g>
</g>
<path class="st4" d="M94.06,295.703c-16.812-28.076-25.698-60.289-25.698-93.156c0-43.669,15.724-85.876,44.274-118.846
	c28.259-32.635,67.198-54.188,109.644-60.689c2.727-0.418,5.281,1.456,5.699,4.185c0.418,2.73-1.456,5.281-4.186,5.699
	c-82.91,12.699-145.432,85.633-145.432,169.651c0,31.058,8.395,61.495,24.277,88.019c1.419,2.369,0.648,5.44-1.721,6.858
	c-0.804,0.482-1.689,0.711-2.563,0.711C96.654,298.135,94.996,297.268,94.06,295.703z M276.208,32.896
	c82.909,12.7,145.431,85.634,145.431,169.651c0,31.057-8.395,61.493-24.277,88.019c-1.418,2.369-0.647,5.44,1.722,6.858
	c0.805,0.482,1.689,0.711,2.563,0.711c1.7,0,3.357-0.867,4.295-2.432c16.812-28.078,25.697-60.291,25.697-93.156
	c0-43.668-15.724-85.875-44.273-118.846c-28.26-32.635-67.198-54.188-109.644-60.69c-2.727-0.418-5.281,1.456-5.699,4.185
	C271.604,29.926,273.479,32.478,276.208,32.896z M250,341.445c-8.972,0-17.313,4.04-22.885,11.084
	c-1.713,2.166-1.346,5.31,0.819,7.023c0.918,0.726,2.012,1.079,3.099,1.079c1.476,0,2.938-0.651,3.925-1.898
	c3.664-4.632,9.147-7.288,15.042-7.288s11.378,2.656,15.043,7.288c1.712,2.166,4.858,2.531,7.023,0.819
	c2.165-1.713,2.532-4.858,0.818-7.024C267.313,345.485,258.971,341.445,250,341.445z M52.15,490h-3.813c-2.761,0-5,2.239-5,5
	s2.239,5,5,5h3.813c2.761,0,5-2.239,5-5S54.912,490,52.15,490z M435.689,495c0,2.761-2.238,5-5,5h-90.144c-2.762,0-5-2.239-5-5
	s2.238-5,5-5h16.214c-4.673-4.298-8.298-9.801-10.378-16.151l-35.906-109.636c-17.437,12.912-38.634,19.971-60.475,19.971
	c-21.841,0-43.039-7.058-60.475-19.971l-35.907,109.635c-2.079,6.349-5.704,11.852-10.377,16.151h16.213c2.761,0,5,2.239,5,5
	s-2.239,5-5,5H69.31c-2.761,0-5-2.239-5-5s2.239-5,5-5h22.423c-7.149-6.583-11.74-15.905-12.161-26.427
	c-0.027-0.209-0.041-0.421-0.041-0.636v-87.644c0-0.071,0.018-0.137,0.021-0.207l-0.021-27.624
	c0-29.356,23.879-53.235,53.231-53.235h1.64v-3.416c0-9.019,1.792-17.799,5.328-26.097l15.185-35.637
	c2.902-6.809,9.472-11.254,16.836-11.464c19.406-23.394,47.783-36.764,78.248-36.764c30.465,0,58.843,13.371,78.247,36.764
	c7.364,0.209,13.934,4.654,16.837,11.463l15.184,35.638c3.536,8.298,5.329,17.078,5.329,26.097v3.416h1.64
	c29.352,0,53.231,23.88,53.231,53.232v27.834v87.644c0,0.218-0.014,0.434-0.042,0.646c-0.424,10.519-5.013,19.837-12.16,26.418
	h22.424C433.451,490,435.689,492.239,435.689,495z M365.597,304.226v16.159c0,4.889,0.986,9.641,2.931,14.123l15.524,35.783h26.416
	v-22.834c0-23.838-19.394-43.232-43.231-43.232H365.597z M89.532,347.458l0.017,22.834h26.399l15.523-35.783
	c1.945-4.484,2.932-9.236,2.932-14.123v-16.159h-1.64C108.926,304.226,89.532,323.62,89.532,347.458z M182.253,354.289
	c0.001-0.002,0.001-0.004,0.001-0.006l4.358-13.306c2.822-8.616,4.252-17.583,4.252-26.65V290.81c0-9.019,1.793-17.8,5.329-26.097
	l8.971-21.055c1.546-3.629,1.186-7.597-0.989-10.888s-5.684-5.178-9.628-5.178h-20.401h0h-1.853c-3.568,0-6.777,2.121-8.176,5.403
	l-15.185,35.637c-3.004,7.051-4.527,14.513-4.527,22.177v29.575c0,6.264-1.264,12.355-3.758,18.103l-16.829,38.793
	c0,0,0,0.001,0,0.001l-15.596,35.949c-0.818,1.885-2.658,3.011-4.589,3.011c-0.664,0-1.339-0.133-1.987-0.414
	c-2.534-1.099-3.696-4.044-2.597-6.577l12.564-28.96H89.532v82.148c0.01,0.108,0.017,0.217,0.019,0.326
	C89.954,478.037,102.246,490,117.536,490c12.124,0,22.805-7.741,26.579-19.263L182.253,354.289z M307.184,354.162l-3.3-10.072
	c-3.151-9.625-4.749-19.638-4.749-29.763V290.81c0-7.663-1.523-15.125-4.527-22.178l-8.972-21.055
	c-2.844-6.673-2.153-14.27,1.846-20.321c4-6.052,10.718-9.665,17.972-9.665h9.271c-17.114-17.113-40.168-26.744-64.724-26.744
	c-24.555,0-47.609,9.631-64.724,26.744h9.271c7.253,0,13.972,3.613,17.971,9.664c4,6.051,4.689,13.648,1.847,20.321l-8.971,21.055
	c-3.005,7.051-4.528,14.513-4.528,22.177v23.516c0,10.126-1.598,20.14-4.75,29.763l-3.299,10.073
	c16.195,12.935,36.372,20.023,57.184,20.023C270.812,374.185,290.988,367.097,307.184,354.162z M382.464,490
	c15.29,0,27.582-11.963,27.984-27.234c0.003-0.112,0.01-0.223,0.02-0.333v-82.142h-22.073l12.563,28.96
	c1.099,2.533-0.063,5.478-2.597,6.577c-0.648,0.281-1.323,0.414-1.987,0.414c-1.933,0-3.772-1.126-4.59-3.011l-15.574-35.899
	c-0.008-0.018-0.019-0.033-0.027-0.051l-16.83-38.793c-2.493-5.747-3.757-11.837-3.757-18.103V290.81
	c0-7.664-1.523-15.125-4.528-22.177l-15.184-35.637c-1.399-3.282-4.609-5.403-8.177-5.403h-1.853c0,0,0,0,0,0c0,0,0,0,0,0h-20.401
	c-3.944,0-7.454,1.887-9.629,5.178c-2.175,3.291-2.535,7.259-0.989,10.887l8.972,21.055c3.535,8.299,5.328,17.08,5.328,26.097
	v23.516c0,9.066,1.431,18.033,4.253,26.651l4.358,13.305c0,0,0,0.001,0,0.001l38.139,116.453
	C359.659,482.259,370.34,490,382.464,490z M451.663,490h-3.813c-2.762,0-5,2.239-5,5s2.238,5,5,5h3.813c2.762,0,5-2.239,5-5
	S454.425,490,451.663,490z M161.922,159.741H96.701c-2.761,0-5-2.239-5-5s2.239-5,5-5h65.216c0.012-0.057,0.031-0.111,0.044-0.167
	c0.134-0.594,0.285-1.181,0.464-1.757c0.003-0.008,0.005-0.016,0.007-0.025c0.18-0.58,0.389-1.148,0.612-1.708
	c0.034-0.085,0.066-0.171,0.101-0.255c0.22-0.534,0.461-1.057,0.718-1.57c0.047-0.093,0.094-0.185,0.142-0.277
	c0.267-0.515,0.549-1.02,0.852-1.512c0.036-0.059,0.075-0.116,0.112-0.175c0.309-0.492,0.634-0.973,0.978-1.439
	c0.021-0.028,0.04-0.057,0.06-0.085c0.351-0.471,0.722-0.925,1.106-1.368c0.062-0.072,0.124-0.145,0.187-0.216
	c0.378-0.425,0.771-0.836,1.178-1.233c0.071-0.069,0.143-0.137,0.215-0.205c0.421-0.4,0.853-0.788,1.303-1.156
	c0.04-0.032,0.081-0.063,0.12-0.095c0.446-0.361,0.906-0.705,1.379-1.033c0.048-0.033,0.094-0.068,0.142-0.101
	c0.478-0.327,0.971-0.632,1.474-0.923c0.089-0.052,0.178-0.104,0.268-0.154c0.497-0.279,1.005-0.542,1.524-0.785
	c0.088-0.042,0.178-0.08,0.267-0.121c0.54-0.245,1.088-0.475,1.648-0.68c0.03-0.011,0.061-0.02,0.091-0.031
	c0.551-0.198,1.113-0.374,1.683-0.531c0.078-0.021,0.154-0.045,0.232-0.066c0.566-0.15,1.142-0.276,1.724-0.384
	c0.11-0.02,0.22-0.04,0.33-0.059c0.582-0.099,1.17-0.179,1.765-0.234c0.095-0.009,0.192-0.014,0.287-0.022
	c0.627-0.05,1.258-0.083,1.898-0.083s1.271,0.033,1.898,0.083c0.096,0.008,0.192,0.013,0.287,0.022
	c0.595,0.055,1.183,0.135,1.765,0.234c0.111,0.019,0.22,0.039,0.33,0.059c0.582,0.108,1.158,0.234,1.724,0.384
	c0.078,0.021,0.155,0.045,0.233,0.066c0.569,0.157,1.131,0.332,1.682,0.531c0.03,0.011,0.061,0.02,0.091,0.031
	c0.561,0.204,1.108,0.435,1.648,0.68c0.089,0.041,0.179,0.08,0.267,0.121c0.519,0.243,1.026,0.506,1.524,0.785
	c0.09,0.051,0.179,0.103,0.268,0.154c0.502,0.291,0.995,0.596,1.473,0.923c0.049,0.033,0.096,0.069,0.144,0.103
	c0.471,0.327,0.931,0.671,1.376,1.031c0.04,0.033,0.082,0.063,0.122,0.096c0.449,0.368,0.882,0.756,1.302,1.155
	c0.072,0.068,0.144,0.136,0.216,0.205c0.407,0.397,0.8,0.807,1.177,1.232c0.064,0.072,0.125,0.145,0.188,0.217
	c0.384,0.443,0.755,0.896,1.105,1.367c0.021,0.029,0.041,0.059,0.062,0.087c0.343,0.465,0.667,0.945,0.975,1.435
	c0.038,0.06,0.077,0.118,0.114,0.177c0.303,0.491,0.585,0.996,0.851,1.51c0.048,0.092,0.096,0.185,0.142,0.278
	c0.258,0.513,0.498,1.036,0.718,1.57c0.035,0.085,0.067,0.17,0.101,0.255c0.223,0.56,0.431,1.127,0.612,1.707
	c0.003,0.009,0.005,0.019,0.008,0.028c0.178,0.574,0.328,1.16,0.462,1.752c0.013,0.057,0.032,0.112,0.045,0.169H245v-19.47
	c0-9.595-7.806-17.402-17.401-17.402H194.42c-0.001,0-0.003,0-0.004,0c-0.001,0-0.002,0-0.003,0h-73.728c-2.761,0-5-2.239-5-5
	s2.239-5,5-5h59.189l-19.35-15.087c-4.004-3.122-8.763-5.243-13.761-6.134c-2.719-0.485-4.53-3.081-4.045-5.8
	c0.484-2.719,3.082-4.529,5.8-4.045c6.595,1.176,12.873,3.974,18.155,8.093l29.465,22.973h31.461c9.25,0,17.437,4.611,22.401,11.651
	c4.964-7.039,13.152-11.651,22.401-11.651h31.461l29.466-22.973c5.281-4.118,11.558-6.916,18.151-8.092
	c2.719-0.486,5.315,1.326,5.8,4.044c0.485,2.719-1.325,5.315-4.044,5.8c-4.998,0.891-9.756,3.012-13.759,6.134l-19.351,15.087H379.6
	c2.762,0,5,2.239,5,5s-2.238,5-5,5h-74.012c-0.001,0-0.002,0-0.003,0c-0.001,0-0.003,0-0.004,0h-33.179
	c-9.595,0-17.401,7.806-17.401,17.402v19.47h37.257c0.014-0.062,0.034-0.122,0.048-0.184c0.132-0.581,0.28-1.156,0.454-1.72
	c0.005-0.017,0.009-0.034,0.015-0.051c0.179-0.575,0.385-1.137,0.606-1.692c0.036-0.09,0.07-0.181,0.107-0.271
	c0.219-0.53,0.458-1.049,0.713-1.558c0.049-0.097,0.098-0.193,0.148-0.289c0.265-0.511,0.546-1.013,0.847-1.502
	c0.038-0.062,0.08-0.123,0.119-0.185c0.307-0.487,0.629-0.964,0.969-1.426c0.022-0.031,0.043-0.062,0.066-0.093
	c0.349-0.47,0.72-0.922,1.103-1.364c0.063-0.073,0.126-0.147,0.191-0.22c0.377-0.424,0.769-0.835,1.176-1.231
	c0.072-0.07,0.145-0.138,0.217-0.207c0.42-0.399,0.852-0.787,1.301-1.154c0.041-0.033,0.083-0.064,0.124-0.097
	c0.445-0.359,0.904-0.703,1.374-1.029c0.049-0.034,0.096-0.07,0.146-0.104c0.478-0.326,0.97-0.631,1.472-0.922
	c0.089-0.052,0.178-0.104,0.269-0.155c0.497-0.279,1.005-0.542,1.524-0.785c0.088-0.041,0.177-0.08,0.266-0.121
	c0.54-0.245,1.088-0.476,1.649-0.68c0.03-0.011,0.06-0.02,0.089-0.03c0.551-0.198,1.113-0.374,1.683-0.531
	c0.078-0.021,0.154-0.045,0.233-0.066c0.566-0.15,1.142-0.276,1.724-0.384c0.11-0.02,0.22-0.04,0.331-0.059
	c0.582-0.099,1.17-0.179,1.765-0.234c0.095-0.009,0.192-0.014,0.287-0.022c0.627-0.05,1.258-0.083,1.897-0.083
	c0.64,0,1.271,0.033,1.898,0.083c0.095,0.008,0.191,0.013,0.287,0.022c0.596,0.055,1.184,0.135,1.766,0.234
	c0.11,0.019,0.219,0.039,0.328,0.059c0.583,0.108,1.16,0.234,1.727,0.385c0.076,0.02,0.151,0.044,0.227,0.065
	c0.573,0.158,1.138,0.334,1.693,0.534c0.027,0.01,0.055,0.018,0.081,0.028c0.564,0.206,1.115,0.437,1.658,0.684
	c0.085,0.039,0.17,0.076,0.255,0.115c0.523,0.245,1.034,0.509,1.535,0.791c0.086,0.048,0.17,0.098,0.255,0.147
	c0.507,0.294,1.004,0.602,1.486,0.931c0.042,0.029,0.082,0.059,0.124,0.088c0.482,0.334,0.951,0.685,1.406,1.053
	c0.033,0.027,0.068,0.052,0.101,0.079c0.455,0.373,0.893,0.765,1.319,1.17c0.066,0.063,0.132,0.124,0.197,0.187
	c0.413,0.402,0.811,0.818,1.194,1.25c0.057,0.064,0.112,0.13,0.169,0.195c0.39,0.449,0.767,0.91,1.123,1.388
	c0.013,0.018,0.025,0.036,0.039,0.054c0.354,0.479,0.688,0.973,1.005,1.479c0.031,0.05,0.064,0.099,0.095,0.149
	c0.307,0.498,0.594,1.01,0.864,1.532c0.044,0.084,0.087,0.168,0.13,0.253c0.261,0.52,0.505,1.05,0.728,1.591
	c0.031,0.076,0.06,0.153,0.091,0.229c0.453,1.133,0.819,2.308,1.092,3.52c0.012,0.052,0.029,0.102,0.041,0.154h64.302
	c2.762,0,5,2.239,5,5s-2.238,5-5,5h-64.307c-2.298,10.535-11.694,18.449-22.908,18.449c-11.214,0-20.609-7.914-22.907-18.449H250
	h-42.263c-2.298,10.535-11.693,18.449-22.908,18.449S164.22,170.276,161.922,159.741z M315.17,141.291
	c-4.172,0-7.906,1.909-10.374,4.899c-1.097,1.329-1.945,2.872-2.469,4.555c-0.394,1.263-0.606,2.604-0.606,3.995
	c0,7.416,6.033,13.449,13.449,13.449c7.414,0,13.446-6.03,13.45-13.443c0-0.002-0.001-0.004-0.001-0.006
	c0-6.952-5.303-12.69-12.076-13.38C316.092,141.315,315.633,141.291,315.17,141.291z M184.83,141.291
	c-4.172,0-7.906,1.909-10.374,4.899c-1.097,1.329-1.945,2.872-2.469,4.555c-0.394,1.263-0.606,2.604-0.606,3.995
	c0,7.416,6.033,13.449,13.449,13.449s13.45-6.033,13.45-13.449c0-1.391-0.212-2.732-0.606-3.995
	c-0.525-1.683-1.372-3.226-2.469-4.555C192.735,143.2,189.001,141.291,184.83,141.291z M192.845,59.386
	c-1.944-0.8-4.18-0.299-5.598,1.255c-1.417,1.553-1.71,3.827-0.734,5.689l16.696,31.868c1.281,2.446,4.302,3.391,6.749,2.109
	c2.446-1.281,3.39-4.303,2.108-6.749L201.75,73.865l16.819,6.922c2.549,1.049,5.464-0.162,6.521-2.707L250,18.046l24.911,60.033
	c1.056,2.545,3.971,3.756,6.521,2.707l16.818-6.922l-10.317,19.693c-1.282,2.446-0.338,5.468,2.108,6.749
	c0.74,0.388,1.534,0.572,2.316,0.572c1.8,0,3.539-0.975,4.433-2.681l16.696-31.868c0.976-1.862,0.683-4.136-0.734-5.689
	c-1.416-1.554-3.654-2.055-5.598-1.255l-24.919,10.255L254.619,3.084C253.844,1.217,252.021,0,250,0s-3.844,1.217-4.618,3.084
	l-27.619,66.558L192.845,59.386z M245,97.233c0,2.761,2.239,5,5,5c2.762,0,5-2.239,5-5V71.637c0-2.761-2.238-5-5-5
	c-2.761,0-5,2.239-5,5V97.233z M250,62.448c2.762,0,5-2.239,5-5v-2.21c0-2.761-2.238-5-5-5c-2.761,0-5,2.239-5,5v2.21
	C245,60.21,247.239,62.448,250,62.448z M119.228,246.224c2.761,0,5-2.239,5-5v-6.535h6.535c2.761,0,5-2.239,5-5s-2.239-5-5-5h-6.535
	v-6.535c0-2.761-2.239-5-5-5s-5,2.239-5,5v6.535h-6.535c-2.761,0-5,2.239-5,5s2.239,5,5,5h6.535v6.535
	C114.228,243.986,116.467,246.224,119.228,246.224z M380.771,246.224c2.762,0,5-2.239,5-5v-6.535h6.535c2.762,0,5-2.239,5-5
	s-2.238-5-5-5h-6.535v-6.535c0-2.761-2.238-5-5-5s-5,2.239-5,5v6.535h-6.534c-2.762,0-5,2.239-5,5s2.238,5,5,5h6.534v6.535
	C375.771,243.986,378.01,246.224,380.771,246.224z"/>
</svg>
